<svg width="193" height="160" viewBox="0 0 193 160" fill="none" xmlns="http://www.w3.org/2000/svg">
<path fill-rule="evenodd" clip-rule="evenodd" d="M5.90009 42.3414C5.50009 43.008 5.10014 43.6414 4.70014 44.2414C4.40014 44.7414 3.99999 45.5414 3.29999 45.4414C2.99999 45.4414 2.69994 45.1414 2.49994 44.9414C2.23327 44.6747 1.99999 44.408 1.79999 44.1413C1.33332 43.608 0.866753 43.108 0.400086 42.6413C0.100086 42.6413 0.000135213 42.1414 0.200135 41.9414C0.300135 41.6414 0.599989 41.5414 0.799989 41.7414C2.39999 41.6747 3.96661 41.6747 5.49994 41.7414C5.89994 41.7414 6.10009 42.0414 5.90009 42.3414ZM4.79999 42.5414C3.73332 42.5414 2.6667 42.5414 1.60004 42.5414C1.80004 42.808 1.9667 43.0414 2.10004 43.2414C2.3667 43.4414 2.59999 43.6747 2.79999 43.9414C2.99999 44.1414 3.20014 44.4414 3.70014 44.3414C3.83347 44.0747 4.00014 43.808 4.20014 43.5414L4.79999 42.5414Z" fill="#FFBB4D"/>
<path fill-rule="evenodd" clip-rule="evenodd" d="M17.9 19.3414C17.8 19.5415 17.6999 19.6414 17.4999 19.6414C16.2999 19.7748 15.0666 19.9081 13.7999 20.0415C13.4999 20.1415 13.4 19.7415 13.4 19.5415C13.6 18.5415 13.9334 17.5748 14.4 16.6414C14 16.2414 14.5999 15.6415 14.9999 16.0415C15.9332 16.9748 16.8666 17.9415 17.7999 18.9415C17.8999 19.0415 18 19.2415 17.9 19.3414ZM14.4 19.1414C15.1334 19.0748 15.8666 18.9748 16.6 18.8414L15.1 17.3414C14.7666 17.9415 14.5334 18.5414 14.4 19.1414Z" fill="#F66957"/>
<path d="M23.2001 19.6414C22.7001 20.4414 21.8 20.6414 20.9 20.4414C20.1 20.2414 19.4001 19.5414 19.2001 18.1414C19.2667 17.6747 19.5 17.2414 19.9 16.8414C20.2 16.5414 20.7 16.3414 21.1 16.2414C22 16.0414 22.8999 16.4414 23.2999 17.2414C23.6999 18.0414 23.7001 18.9414 23.2001 19.6414Z" fill="#19C5FF"/>
<path fill-rule="evenodd" clip-rule="evenodd" d="M181.9 146.241C181.3 146.308 180.734 146.341 180.2 146.341C179.934 146.341 179.667 146.341 179.4 146.341C179.1 146.341 178.9 146.341 178.7 146.141C178.4 145.841 178.5 145.541 178.6 145.241C178.733 144.975 178.867 144.708 179 144.441C179.267 143.975 179.5 143.475 179.7 142.941C179.8 142.841 180 142.741 180.5 142.541C180.7 142.441 180.9 142.541 181 142.841C181.4 143.775 181.833 144.708 182.3 145.641C182.4 145.941 182.2 146.241 181.9 146.241ZM180.4 145.441C180.667 145.441 180.934 145.441 181.2 145.441C180.934 144.841 180.667 144.241 180.4 143.641C180.2 143.975 180.033 144.341 179.9 144.741C179.8 144.941 179.6 145.141 179.7 145.441C179.967 145.441 180.2 145.441 180.4 145.441Z" fill="#F66957"/>
<path fill-rule="evenodd" clip-rule="evenodd" d="M152.4 135.341C151.667 135.675 151 136.108 150.4 136.641C150.2 136.841 149.8 136.841 149.7 136.541C149.4 135.841 149.1 135.141 148.6 134.041C148.6 133.841 148.7 133.641 149.1 133.441C149.433 133.308 149.733 133.141 150 132.941C150.4 132.741 150.8 132.441 151.2 132.641C151.6 132.841 151.8 133.241 151.9 133.541C152.1 133.941 152.3 134.341 152.5 134.741C152.6 134.941 152.6 135.241 152.4 135.341ZM150.3 135.641C150.7 135.308 151.133 135.008 151.6 134.741C151.467 134.541 151.333 134.341 151.2 134.141C151.1 133.941 151.1 133.841 150.7 133.541C150.567 133.675 150.4 133.775 150.2 133.841C150.067 133.975 149.9 134.108 149.7 134.241C149.9 134.708 150.1 135.175 150.3 135.641Z" fill="#FFBB4D"/>
<path d="M164 133.841C163.5 134.541 162.6 134.841 161.8 134.641C160.9 134.341 160.2 133.741 160 132.341C160.067 131.808 160.3 131.341 160.7 130.941C161 130.641 161.5 130.441 161.9 130.341C162.8 130.241 163.7 130.541 164.1 131.341C164.5 132.141 164.5 133.141 164 133.841Z" fill="#19C5FF"/>
<path d="M192.6 53.9414C192.4 55.3414 191.5 56.5414 190.4 57.3414C187.8 59.3414 183.9 58.7414 180.9 58.2414C177.7 57.6414 174.5 56.4413 172 54.1413C170.9 53.1413 169.9 51.9413 169.2 50.6413C168.5 49.1413 168.2 47.5414 168.1 45.8414C168 44.1414 168.2 42.3413 168.5 40.6413C168.766 38.9747 169.067 37.308 169.4 35.6413C170 32.4413 170.9 29.1414 172.8 26.3414C172.9 26.2414 173.1 26.1413 173.2 26.1413C172.3 23.4413 171.9 20.5414 171.4 17.7414C171.3 17.2414 172.2 16.9414 172.3 17.5414C172.433 18.408 172.567 19.2747 172.7 20.1413C173.3 23.6413 174.1 27.0414 175.9 30.0414C176.7 31.3414 177.7 32.5414 178.9 33.5414C180.2 34.6414 181.7 35.4414 183.2 36.2414C184.5 37.0414 185.8 38.0414 186.8 39.3414C187.2 39.9414 187.6 40.5414 187.8 41.2414C188 42.0414 188 42.9414 187.9 43.7414C187.8 44.5414 187.7 45.4414 187.9 46.2414C188 46.8414 188.4 47.3414 188.8 47.8414C189.7 48.7414 190.8 49.4414 191.6 50.3414C192.5 51.3414 192.9 52.6414 192.6 53.9414Z" fill="#36174D"/>
<path d="M176.7 55.0414C176.7 55.2414 176.4 55.5414 176.2 55.5414C175.334 55.5414 174.433 55.5414 173.5 55.5414C166.1 55.5414 158.7 55.5747 151.3 55.6413C149.433 55.708 147.567 55.7414 145.7 55.7414C144.4 55.7414 142.7 55.9414 141.6 54.9414C141.1 54.4414 140.9 53.7414 140.7 53.0414C140.6 52.1414 140.5 51.3414 140.4 50.4414L139.8 45.1413C139.2 44.8747 138.667 44.5747 138.2 44.2414C136.8 43.1414 135.6 41.6414 135.1 39.8414C134.9 38.8414 134.934 37.8747 135.2 36.9414C135.5 36.0414 136 35.1413 136.2 34.1413C136.4 32.2413 135.3 30.4413 135.1 28.6413C134.9 27.1413 135.3 25.7414 136.1 24.4414C136.9 23.1414 137.9 22.0414 138.8 20.8414C139.133 20.3747 139.434 19.8747 139.7 19.3414C140 16.3414 140.5 12.9414 141.4 11.3414C142.7 8.84136 144.1 7.64139 146.3 5.94139C151.2 2.14139 156.5 2.84137 162.4 4.54137C162.7 4.64137 162.7 4.94134 162.7 5.14134C163.634 5.47468 164.533 5.94137 165.4 6.54137C172.2 11.2414 172.6 20.5414 173.5 27.9414C174.567 37.0081 175.634 46.0414 176.7 55.0414Z" fill="#36174D"/>
<path d="M142.3 34.9414C150.433 37.1414 158.6 39.3747 166.8 41.6414C164.5 43.8414 157.4 50.0414 150 47.9414C142.7 45.9414 142.2 37.7414 142.3 34.9414Z" fill="#FFBB4D"/>
<path d="M187.5 56.5413C187.5 56.9413 187.5 72.3413 187.5 85.0413C187.5 97.7413 187.5 112.041 177 114.041C167 115.841 159.1 110.741 157.8 95.2413C157.3 89.8413 156.8 85.1413 156.3 81.3413C155.967 81.3413 155.633 81.3747 155.3 81.4413C152.6 81.4413 150.1 80.6413 148 79.2413L142.4 84.9413L101.2 72.3413L112.7 56.1413L108.7 55.0413L108.9 54.3413C104.2 52.1413 100.9 47.3413 100.9 41.8413C100.9 37.7413 103.2 32.4413 106.7 30.1413C110.8 27.4413 116.5 27.7413 121 29.0413C126.867 30.6413 132.767 32.2747 138.7 33.9413C139.167 34.0747 139.633 34.1747 140.1 34.2413C139.7 37.5413 139.7 47.4413 150 50.3413C159.8 53.0413 167 45.4413 169.5 42.4413C171.033 42.8413 172.6 43.2747 174.2 43.7413C175.267 44.008 176.333 44.308 177.4 44.6413C179.4 45.3413 181.3 46.1413 182.9 47.3413C186.2 49.6413 187.5 53.0413 187.5 56.5413Z" fill="#FFBB4D"/>
<path d="M181.6 102.541C181.333 100.475 181.033 98.4081 180.7 96.3414C179.5 89.0414 177.8 81.9414 175.5 74.9414C175.3 74.3414 176.2 74.1414 176.3 74.7414C176.967 76.6748 177.6 78.6414 178.2 80.6414C180.2 87.8414 181.6 95.1414 182.5 102.541C182.5 103.041 181.7 103.041 181.6 102.541Z" fill="white"/>
<path d="M163.8 78.6413C163.6 80.5079 163.433 82.3746 163.3 84.2413C162.7 90.8413 162.1 97.408 161.5 103.941C161.5 104.541 160.6 104.341 160.6 103.841C160.8 101.975 160.967 100.108 161.1 98.2413C161.7 91.6413 162.3 85.0746 162.9 78.5413C163 77.9413 163.8 78.1413 163.8 78.6413Z" fill="white"/>
<path d="M124.8 18.0414H41.7999C39.5356 18.0414 37.7001 19.877 37.7001 22.1414V121.941C37.7001 124.206 39.5356 126.041 41.7999 126.041H124.8C127.064 126.041 128.9 124.206 128.9 121.941V22.1414C128.9 19.877 127.064 18.0414 124.8 18.0414Z" fill="#DADEF1"/>
<path d="M65.4 18.0414V125.941H41.7999C39.4999 125.941 37.7001 124.141 37.7001 121.841V22.1414C37.7001 19.8414 39.4999 18.0414 41.7999 18.0414H65.4Z" fill="#F5F5FA"/>
<path d="M42.2001 31.2413H22.7001C16.0174 31.2413 10.6 36.6587 10.6 43.3413V50.0413C10.6 56.724 16.0174 62.1413 22.7001 62.1413H42.2001C48.8827 62.1413 54.2999 56.724 54.2999 50.0413V43.3413C54.2999 36.6587 48.8827 31.2413 42.2001 31.2413Z" fill="#19C5FF"/>
<path d="M159.3 32.1414L158.1 42.9414L149.5 41.3414L149.8 37.5414L149.9 36.6414L150.3 31.4414L159.3 32.1414Z" fill="#F6B399"/>
<path d="M172.7 22.6413C172.233 24.108 171.633 25.4413 170.9 26.6413C169.5 28.7413 167.5 30.5413 165.3 31.7413C162 36.2413 156.2 38.4413 150.5 36.7413C144 34.8413 140 28.5413 140.8 22.0413C140.867 21.308 141.033 20.5746 141.3 19.8413C141.7 18.4413 142.267 17.1747 143 16.0413C143.133 15.4413 143.3 14.808 143.5 14.1413C145.8 6.0413 154.3 1.44134 162.3 3.74134C170.4 6.14134 175 14.5413 172.7 22.6413Z" fill="#F6B399"/>
<path d="M157.9 24.0413C157.8 24.5413 157.2 24.8413 156.7 24.7413C156.2 24.5413 155.9 24.0413 156.1 23.5413C156.2 23.0413 156.8 22.7413 157.3 22.8413C157.8 23.0413 158.1 23.5413 157.9 24.0413Z" fill="#36174D"/>
<path d="M149.6 20.3414C149.5 20.8414 148.9 21.1414 148.4 20.9414C147.9 20.8414 147.6 20.2414 147.8 19.7414C147.9 19.2414 148.5 18.9414 149 19.1414C149.5 19.2414 149.8 19.8414 149.6 20.3414Z" fill="#36174D"/>
<path d="M152.3 67.6414V73.4414C151.567 73.7081 150.9 74.0414 150.3 74.4414C146.8 76.6414 144.7 80.6414 141 82.6414C137 84.8414 132.3 83.3414 128 84.0414C125.4 84.5414 122.9 85.7414 120.9 87.4414V67.6414C120.9 65.6414 122.6 64.0414 124.6 64.0414H148.6C150.6 64.0414 152.3 65.6414 152.3 67.6414Z" fill="#36174D"/>
<path d="M152.3 73.4414V91.6414C152.3 93.7414 150.6 95.3414 148.6 95.3414H124.6C122.6 95.3414 120.9 93.7414 120.9 91.6414V87.4414C122.9 85.7414 125.4 84.5414 128 84.0414C132.3 83.3414 137 84.8414 141 82.6414C144.7 80.6414 146.8 76.6414 150.3 74.4414C150.9 74.0414 151.567 73.7081 152.3 73.4414Z" fill="#19C5FF"/>
<path d="M131.9 79.6414C134.938 79.6414 137.4 77.1789 137.4 74.1414C137.4 71.1038 134.938 68.6414 131.9 68.6414C128.862 68.6414 126.4 71.1038 126.4 74.1414C126.4 77.1789 128.862 79.6414 131.9 79.6414Z" fill="white"/>
<path d="M163.1 103.841C162.9 104.641 163.9 107.141 163.9 108.141C163.8 109.741 163.2 111.141 162.9 112.641C161.2 120.341 159.3 125.641 149.5 129.341C147.6 130.041 140.5 132.841 138.3 133.641C137.8 134.841 136.7 136.541 135.8 138.941C135.3 140.441 134.9 142.241 134.8 144.341C135.4 144.641 135.3 145.841 134.4 145.941C126.6 146.608 118.8 146.775 111 146.441C110.5 146.441 110.3 146.041 110.2 145.641C110.2 145.441 110.3 145.241 110.4 145.041C110.533 144.908 110.7 144.841 110.9 144.841C111.1 143.341 111.4 142.141 111.7 140.841C113.2 135.841 114 132.841 114.1 132.541C115.7 127.541 117.7 122.741 120.2 118.141C122.5 113.941 125.1 110.041 128.2 106.341C130.5 103.641 134.3 98.4414 138 97.6414C141.8 96.7414 143.2 101.341 141.9 104.141C140.9 106.041 139.2 107.341 137.8 108.941C136.8 110.041 135.7 112.241 136.3 113.741C141.2 113.141 145.8 110.941 149.5 107.441C151.3 105.741 152.8 103.841 154 101.641C155.2 99.5414 155.9 96.8414 157.8 95.2414C159.2 93.9414 161.5 93.4414 163 94.9414C164.4 96.4414 164.3 98.8414 163.9 100.741C163.7 101.808 163.433 102.841 163.1 103.841Z" fill="#AB5A44"/>
<path d="M86.7001 90.3413C86.7001 92.6413 86.1999 94.8413 85.2999 96.8413C82.7999 102.741 76.9999 107.241 70.4999 107.541C70.2999 107.541 70.1 107.541 69.9 107.541C61.3 107.541 54.2999 100.541 54.2999 91.9413C54.2999 83.2413 61.3 76.2413 69.9 76.2413C75 76.2413 79.5 78.7413 82.4 82.4413C82.8 82.308 83.1334 82.0413 83.4 81.6413C83.6 81.4413 83.9 81.5413 84.1 81.7413C85.2 83.3413 85.9 85.1413 86.4 87.0413C86.4 87.108 84.2665 87.5413 79.9999 88.3413C80.9999 89.7413 82.4999 90.4747 84.4999 90.5413C85.3999 90.5413 86.2001 90.4413 86.7001 90.3413Z" fill="#AB5A44"/>
<path d="M86.7001 90.3414C86.2001 90.4414 85.3999 90.5414 84.4999 90.5414C82.4999 90.4747 80.9999 89.7414 79.9999 88.3414L86.4 87.1414C86.6 88.208 86.7001 89.2747 86.7001 90.3414Z" fill="white"/>
<path d="M170.4 83.1413C168.2 83.7413 166 83.0413 164.4 81.6413C162.9 80.4413 162.3 79.4413 162.1 77.5413C161.2 78.4413 159.9 78.9413 158.8 79.3413C157.6 79.8413 156.1 79.3413 155 78.5413C154 77.8413 153.5 76.6413 153.4 75.3413C152.6 76.1413 151.3 76.1413 150.4 75.6413C149 75.0413 147.9 73.2413 148 71.9413C145.8 72.0413 144.2 69.0413 144.9 67.6413C145.5 66.4413 145.9 65.6413 147 64.1413C147.2 63.8746 147.433 63.608 147.7 63.3413C146.7 63.5413 145.7 63.8413 144.7 64.2413C143.7 64.708 142.733 65.2413 141.8 65.8413C140.8 66.5413 139.9 67.2413 138.8 67.7413C137.8 68.1413 136.8 68.3413 135.7 68.1413C134.8 67.8413 133.9 67.3413 133.5 66.3413C132.8 64.5413 134.1 62.7413 135.3 61.6413C138.6 58.3413 142.6 55.6413 147.3 55.1413C151.6 54.6413 155.9 56.0413 159.6 58.1413C162.2 59.7413 164.7 61.7413 166.8 63.9413C168.7 66.0413 171.2 67.6413 173.1 69.9413C175.3 72.5413 177.1 75.8413 175.4 79.2413C174.4 81.1413 172.5 82.6413 170.4 83.1413Z" fill="#F6B399"/>
<path d="M77.2001 85.0414C77.2001 85.5414 76.8001 86.0414 76.2001 86.0414C75.7001 86.0414 75.2999 85.5414 75.2999 85.0414C75.2999 84.5414 75.7001 84.1414 76.2001 84.1414C76.8001 84.1414 77.2001 84.5414 77.2001 85.0414Z" fill="#36174D"/>
<path d="M75.7999 81.4414C75.4999 81.8414 75 81.9413 74.6 82.1413C74.2 82.2746 73.8332 82.4747 73.4999 82.7413C72.8999 83.2413 72.3999 83.9413 71.9999 84.6413C71.9332 84.908 71.7665 85.008 71.4999 84.9414C71.0999 84.9414 70.9 84.5413 70.9 84.1413C70.9 83.0413 71.2999 82.1413 71.9999 81.3413C72.4999 80.6413 73.3001 80.1413 74.2001 79.8413C74.7001 79.7413 75.2 79.7413 75.6 80.1413C76 80.4413 76.0999 81.0414 75.7999 81.4414Z" fill="#36174D"/>
<path fill-rule="evenodd" clip-rule="evenodd" d="M97.0999 120.941C97.0999 121.075 97.0999 121.241 97.0999 121.441C97.0999 121.708 97.0999 122.008 97.0999 122.341C97.0999 122.641 96.9 122.741 96.7 122.741C95.3 126.041 92.0999 128.341 88.5999 128.841C84.5999 129.441 80.5998 128.041 77.4998 125.541C74.3998 123.141 72.0998 119.741 70.4998 116.041C68.8998 112.341 68.1999 108.241 68.3999 104.141C68.4999 100.941 69.5999 97.2414 72.5999 95.7414C72.7999 95.6414 72.9999 95.6413 73.0999 95.8413C73.3999 95.7413 73.8 95.9413 73.7 96.3413C73.6 96.7413 73.5999 97.1414 73.8999 97.7414C75.4999 100.041 78.8999 99.8414 81.3999 100.241C82.5999 100.541 83.7999 100.841 84.8999 101.541C85.7999 102.241 86.3999 103.241 86.8999 104.341C87.2999 105.341 87.5998 106.541 87.9998 107.541C88.4998 108.641 89.1998 109.541 90.2998 109.941C91.4998 110.541 92.8999 110.741 94.0999 111.341C95.1999 111.841 96.0998 112.741 96.7998 113.741C98.1998 115.941 98.2999 118.741 97.0999 120.941ZM89.2 110.441C88.8666 110.241 88.5665 109.975 88.2998 109.641C86.7998 108.041 86.6999 105.641 85.5999 103.741C84.2999 101.541 81.6998 101.141 79.2998 100.941C77.9998 100.741 76.5999 100.541 75.3999 99.9414C76.5999 100.741 78.0998 101.041 79.4998 101.341C80.7998 101.641 82.1 102.041 83.2 102.741C84.2 103.341 84.8999 104.241 85.3999 105.341C85.8999 106.341 86.2998 107.341 86.7998 108.341C87.3998 109.341 88.1 110.041 89.2 110.441ZM95.7 113.941C96.5 115.241 96.7998 116.741 96.9998 118.241C97.1998 116.341 96.4999 114.341 94.8999 112.941C95.1666 113.275 95.4333 113.608 95.7 113.941Z" fill="#36174D"/>
<path d="M42.2999 92.4414C42.1999 94.4414 42.0001 96.5413 41.7001 98.6413C41.4001 100.741 40.9999 102.841 40.4999 104.941L40.2999 108.541L16.6 109.241L17.9 105.241C19.6 95.7414 16.3001 92.0414 12.7001 87.2414C10.6001 84.5414 8.10007 82.4413 5.70007 80.1413C3.90007 78.2413 3.20007 75.1414 4.20007 72.7414C4.00007 72.4747 3.79998 72.2413 3.59998 72.0413C1.49998 69.4413 0.199975 65.0413 3.09998 62.5413C2.09998 61.2413 1.29993 59.9414 1.29993 58.2414C1.29993 55.2414 3.30002 53.4413 6.40002 54.3413C8.00002 54.7413 9.30002 55.9413 10.4 57.0413C12 58.6413 13.6001 60.2413 15.2001 61.8413C16.8667 63.508 18.5666 65.1414 20.2999 66.7414C20.9999 67.5414 22.9 69.8413 24.4 70.0413C21.6 66.308 18.7999 62.608 15.9999 58.9414C14.0999 56.4414 10.3001 52.4414 13.2001 49.2414C15.7001 46.5414 19.7999 48.4413 21.7999 50.6413C24.8999 54.1413 27.4999 58.0414 30.2999 61.7414L34.2001 66.8413C34.9001 67.3413 35.7001 67.5413 36.2001 67.5413C36.4001 66.5413 36.5667 65.5413 36.7001 64.5413C37.1001 62.0413 37.0999 59.3414 38.2999 57.2414C39.8999 54.4414 44.6 53.1413 46.1 56.8413C46.7 58.4413 46.1999 60.3413 45.7999 62.0413C45.1999 64.5413 44.9999 67.0413 45.2999 69.6413C45.8999 77.0413 48.6999 86.7414 42.2999 92.4414Z" fill="#AB5A44"/>
<path d="M25.4001 71.1414C24.0667 69.6747 22.7666 68.1414 21.4999 66.5414C19.1999 63.8414 17.1 60.9414 15.1 57.9414C14.5667 57.2081 14.0667 56.4747 13.6 55.7414C13.1 54.9414 12.6 54.2414 12.3 53.4414C11.8 52.0414 11.8001 50.4414 12.9001 49.3414C13.3001 48.9414 13.8999 49.5414 13.4999 49.9414C12.1999 51.2414 13.1001 53.1414 13.9001 54.4414C15.6001 57.3414 17.6 60.0414 19.6 62.7414C21.6 65.4414 23.6999 68.0414 25.9999 70.5414C26.3999 70.9414 25.8001 71.5414 25.4001 71.1414Z" fill="#953A33"/>
<path d="M19.7998 77.8414C17.9331 76.4414 16.0998 74.9748 14.2998 73.4414C11.0998 70.7748 8.03319 67.908 5.09986 64.8414C4.63319 64.308 4.16662 63.7747 3.69996 63.2414C2.39996 64.0414 1.89976 65.7414 1.99976 67.2414C2.09976 68.9414 3.09986 70.4414 4.09986 71.7414C5.29986 73.2414 6.69976 74.5414 7.99976 75.8414C10.7998 78.5414 13.7998 81.1414 16.7998 83.6414C17.2998 84.0414 16.6 84.6414 16.2 84.2414C14.4 82.7081 12.5998 81.1747 10.7998 79.6414C9.26648 78.2414 7.76648 76.8414 6.29981 75.4414C4.89981 74.0414 3.49991 72.6414 2.39991 70.9414C1.49991 69.5414 0.89986 67.8414 1.09986 66.1414C1.29986 64.7414 1.89986 63.4414 3.09986 62.5414C2.39986 61.8414 1.79991 61.0414 1.39991 60.1414C0.699909 58.6414 0.699908 56.6414 1.89991 55.3414C2.29991 54.9414 2.99986 55.5414 2.59986 55.9414C1.19986 57.4414 1.89976 59.6414 2.99976 61.0414C3.49976 61.7414 4.19991 62.4414 4.89991 63.2414C5.56658 63.9081 6.23324 64.608 6.89991 65.3414C8.29991 66.7414 9.69986 68.1081 11.0999 69.4414C14.0332 72.1748 17.0666 74.7081 20.2 77.0414C20.7 77.4414 20.1998 78.1414 19.7998 77.8414Z" fill="#953A33"/>
<path d="M40.2999 108.541L39.9 113.841V114.441L36.6 159.541H1.29993L16.6 109.241L40.2999 108.541Z" fill="#F66957"/>
<path d="M40.2999 108.541L39.9 113.841V114.441L36.6 159.541H1.29993L16.6 109.241L40.2999 108.541Z" fill="#F66957"/>
<path d="M119.9 159.541H21.6C24.2666 145.208 25.8001 135.675 26.2001 130.941C26.8001 123.941 29.3 120.541 30.9 118.941C33.8 115.741 38 113.641 42.6 113.641C42.9333 113.641 43.2666 113.675 43.6 113.741C50.3333 113.741 57.0666 113.775 63.7999 113.841C68.3999 113.841 73 113.841 77.6 113.841C82.1 113.841 87 113.641 91.4 114.441C97.8 115.741 105.5 120.741 107.9 127.041C108.8 129.241 110.3 133.541 112 138.241C112.133 138.441 112.233 138.675 112.3 138.941C114.633 145.275 117.167 152.141 119.9 159.541Z" fill="#F66957"/>
<path d="M71.2999 124.041C70.9999 124.541 70.7 125.041 70.7 125.641C70.7 126.241 70.9 126.741 71.2 127.241C71.4 127.741 71.6999 128.341 71.5999 128.941C71.5999 129.441 71.3998 129.941 70.9998 130.441C70.2998 131.341 69 131.741 67.9 132.041C66.5 132.308 65.1332 132.575 63.7999 132.841C58.3999 133.941 52.7999 134.641 47.2999 133.941C45.9665 133.741 44.6332 133.475 43.2999 133.141C42.0999 132.841 40.9998 132.341 39.9998 131.541C39.0998 130.841 38.3999 129.841 38.2999 128.741C38.0999 127.641 38.3998 126.541 38.9998 125.641C40.2998 123.641 42.5 122.641 43.7 120.641C44.3 119.741 44.5999 118.741 44.2999 117.641C43.9999 116.541 43.3998 115.641 42.9998 114.641C42.4998 113.541 42.2998 112.441 42.4998 111.341C42.7998 110.241 43.3999 109.241 44.0999 108.341C45.5999 106.541 47.5999 105.341 49.0999 103.541C49.8999 102.641 50.3 101.541 50.4 100.341C50.6 98.3414 48.6 95.6414 48.4 93.6414C48.3 91.4414 48.5999 89.1414 49.2999 87.0414C50.5999 83.4414 53.0999 80.4414 56.2999 78.4414C59.8999 76.0414 65.1 75.8414 69.7 75.6414C70 75.6414 70.2999 75.7414 70.5999 75.8414C70.7333 76.0414 70.8333 76.2414 70.9 76.4414C71.9666 78.2414 72.8332 80.108 73.4998 82.0414C75.2998 87.3414 76.0999 93.5414 74.2999 98.9414C74.5665 99.8081 74.7 100.708 74.7 101.641C74.7 102.841 74.4999 104.041 74.0999 105.141C73.6999 106.341 73.1 107.341 72.4 108.441C71.8 109.341 71.1999 110.341 71.0999 111.541C71.0999 112.441 71.5999 113.241 72.0999 113.941C72.9999 115.441 74.5 116.741 74.7 118.541C74.9 121.041 72.4999 122.241 71.2999 124.041Z" fill="#36174D"/>
<path d="M135.8 138.941L135.2 159.541H106C107.6 154.341 109 149.708 110.2 145.641C110.267 145.441 110.333 145.241 110.4 145.041C110.9 143.441 111.3 142.041 111.7 140.941C111.8 140.441 112 140.041 112.1 139.741C112.167 139.475 112.233 139.208 112.3 138.941C112.367 138.741 112.433 138.541 112.5 138.341C113.5 134.841 114 132.841 114.1 132.541C114.167 132.675 121.4 134.808 135.8 138.941Z" fill="#F66957"/>
<path d="M76 119.841C75.7333 120.441 75.4 121.008 75 121.541C74.5 122.041 74 122.441 73.5 122.941C73 123.341 72.6001 123.941 72.6001 124.641C72.6001 125.441 73.0001 126.141 73.1001 126.841C73.3001 128.241 72.7001 129.441 71.7001 130.241C69.0001 132.341 65.7 131.041 63 129.741C62.5 129.441 63 128.741 63.5 128.941C65.1 129.741 66.8001 130.541 68.7001 130.541C70.0001 130.441 71.4 129.741 72 128.441C72.7 127.141 71.7001 125.841 71.7001 124.541C71.7001 123.041 72.9 122.341 73.8 121.441C74.8 120.541 75.4001 119.441 75.4001 118.041C75.4001 116.741 74.8 115.641 74 114.541C73.3 113.441 72.4001 112.341 72.6001 110.941C72.6001 110.141 72.9001 109.441 73.2001 108.741C73.5335 108.008 73.8 107.241 74 106.441C74.8 103.441 74.7 100.141 73.8 97.1414C73.7 96.6414 74.5001 96.3414 74.7001 96.9414C75.8001 100.441 75.7 104.241 74.5 107.741C74 109.241 73.0001 110.741 73.7001 112.341C74.2001 113.641 75.3001 114.541 75.9001 115.841C76.4001 117.041 76.4 118.541 76 119.841Z" fill="#36174D"/>
<path d="M72.7001 100.241C75.1854 100.241 77.2001 98.2266 77.2001 95.7413C77.2001 93.2561 75.1854 91.2413 72.7001 91.2413C70.2148 91.2413 68.2001 93.2561 68.2001 95.7413C68.2001 98.2266 70.2148 100.241 72.7001 100.241Z" fill="#AB5A44"/>
<path d="M164.2 99.8414C163.9 101.741 163.1 103.541 162.3 105.341C161.567 106.941 160.667 108.441 159.6 109.841C157.5 112.841 154.8 115.341 151.8 117.241C151.3 117.641 150.9 116.841 151.3 116.541C152.9 115.475 154.4 114.275 155.8 112.941C158.2 110.641 160.1 107.841 161.5 104.841C162.3 103.241 163 101.541 163.3 99.7414C163.6 98.1414 163.5 96.0415 162 94.9414C161.8 94.7415 161.7 94.5414 161.9 94.3414C162 94.1414 162.3 94.0414 162.5 94.1414C164.2 95.5414 164.6 97.7414 164.2 99.8414Z" fill="#953A33"/>
<path d="M164.1 108.041C163.9 109.441 163.3 110.741 162.7 112.041C162.1 113.241 161.433 114.375 160.7 115.441C159.1 117.541 157.3 119.441 155.1 120.941C154.7 121.341 154.2 120.541 154.7 120.241C155.833 119.441 156.867 118.541 157.8 117.541C159.5 115.741 160.9 113.741 161.9 111.641C163 109.541 164.1 106.541 162.4 104.441C162 104.041 162.6 103.441 163 103.841C164 105.041 164.3 106.541 164.1 108.041Z" fill="#953A33"/>
<path d="M162.9 115.441C162.4 119.541 160 123.241 156.6 125.541C156.1 125.841 155.7 125.041 156.1 124.741C157.033 124.141 157.867 123.441 158.6 122.641C161.2 119.741 162.5 115.841 162.1 111.941C162.1 111.441 163 111.441 163 111.941C163.133 113.141 163.1 114.308 162.9 115.441Z" fill="#953A33"/>
<path d="M76.7999 94.1413C75.2666 94.6079 73.7 94.9746 72.1 95.2413C71.8 95.2413 71.5999 95.1413 71.4999 94.9413C71.4999 94.7413 71.5999 94.4413 71.7999 94.3413C73.3999 94.0746 75 93.7413 76.6 93.3413C77.1 93.1413 77.2999 94.0413 76.7999 94.1413Z" fill="#953A33"/>
<path d="M74.7 94.3414C73.9 94.9414 73.8999 95.4414 73.9999 96.0414C74.7999 95.4414 74.8 94.9414 74.7 94.3414Z" fill="#953A33"/>
<path d="M158.7 79.8413C156.4 80.1413 153.4 78.3413 153.4 75.8413C152.3 76.2413 151 76.0414 150 75.5414C149.1 74.9414 148.1 74.0414 147.8 72.9414C147.8 72.6747 147.8 72.408 147.8 72.1413C146.6 72.2413 145.5 71.4414 145 70.4414C144 68.1414 145.4 65.6413 146.7 63.8413C148.2 61.6413 150.1 59.8414 152.4 58.5414C152.8 58.3414 153.2 58.9413 152.7 59.1413C151.567 59.808 150.533 60.608 149.6 61.5414C148.8 62.3414 148.067 63.208 147.4 64.1413C146.7 65.1413 146.1 66.0413 145.7 67.1413C145.4 68.0413 145.3 69.1414 145.7 70.0414C146 70.8414 146.8 71.4414 147.9 71.4414C148.2 70.8414 148.6 70.1414 149 69.5414C150.533 67.0747 152.367 64.7747 154.5 62.6413C154.8 62.3413 155.4 62.8413 155 63.1413C153.933 64.208 152.933 65.3414 152 66.5414C151.2 67.608 150.433 68.6747 149.7 69.7414C149.2 70.6414 148.3 71.6414 148.6 72.7414C148.8 73.7414 149.7 74.5414 150.6 74.9414C151.4 75.3414 152.4 75.4414 153.5 75.0414C153.7 74.3414 154.1 73.7413 154.4 73.1413C154.867 72.408 155.367 71.7413 155.9 71.1413C156.9 69.808 158.1 68.6747 159.5 67.7414C159.9 67.4414 160.3 68.1414 159.9 68.4414C158.567 69.308 157.367 70.408 156.3 71.7414C155.833 72.2747 155.433 72.8747 155.1 73.5414C154.8 74.0414 154.4 74.5413 154.3 75.1413C153.9 76.4413 154.6 77.5414 155.5 78.2414C157.5 79.7414 160.3 79.2413 161.7 77.3413L161.2 75.9414C160.8 76.208 160.4 76.508 160 76.8413C159.8 76.9413 159.6 76.8414 159.5 76.7414C159.4 76.5414 159.5 76.3414 159.6 76.2414C160.6 75.4414 161.133 75.008 161.2 74.9414C161.4 74.9414 161.6 75.0414 161.7 75.2414L162.3 76.8413C162.5 76.9413 162.7 77.1414 162.6 77.4414C161.7 78.7414 160.3 79.6413 158.7 79.8413Z" fill="#EE796A"/>
<path d="M150.3 25.7415C149.4 25.7415 148.8 24.9414 148.8 24.0414C148.7 22.9414 149.6 22.1415 150.2 21.4415C150.8 20.7415 151.1 20.0414 150.9 19.1414C150.7 18.3414 150.9 17.6414 150.2 17.3414C149.6 17.0414 149.5 16.3414 150 16.6414C151.4 17.2414 152.1 19.0414 151.8 20.5414C151.5 21.4414 150.8 22.0415 150.2 22.7415C149.9 23.1415 149.6 23.6414 149.7 24.1414C149.7 24.4414 150 24.8414 150.3 24.8414C150.9 24.8414 150.9 25.7415 150.3 25.7415Z" fill="#EE796A"/>
<path d="M167.5 32.1413C169.543 32.1413 171.2 30.4848 171.2 28.4413C171.2 26.3979 169.543 24.7413 167.5 24.7413C165.456 24.7413 163.8 26.3979 163.8 28.4413C163.8 30.4848 165.456 32.1413 167.5 32.1413Z" fill="#F6B399"/>
<path d="M39.9 114.441C36.2 115.641 33.2001 117.741 30.7001 120.441C25.8001 125.641 23.3 132.541 21.1 139.341C18.9 146.008 17.0666 152.741 15.6 159.541H14.7001C15.4334 155.941 16.2999 152.375 17.2999 148.841C18.3666 144.975 19.5333 141.141 20.7999 137.341C21.9999 133.841 23.2999 130.241 24.9999 126.941C28.0999 121.041 32.9 115.741 39.4 113.641C39.6 113.541 39.8 113.641 39.9 113.841C40 114.041 40 114.241 39.9 114.441Z" fill="white"/>
<path d="M120.4 159.541H119.4C116.8 153.008 114.367 146.408 112.1 139.741C111.967 139.408 111.833 139.075 111.7 138.741C111.6 138.441 111.8 138.241 112 138.241C112.2 138.141 112.4 138.241 112.5 138.341C113.3 140.641 114.1 142.741 114.8 144.941C116.6 149.875 118.467 154.741 120.4 159.541Z" fill="white"/>
<path d="M92.4 159.541H91.4C89.6 155.408 87.7998 151.275 85.9998 147.141C85.7998 146.641 86.4999 146.141 86.7999 146.641C87.5332 148.375 88.2665 150.108 88.9998 151.841C90.1332 154.441 91.2667 157.008 92.4 159.541Z" fill="white"/>
<path d="M54.5999 92.0413C54.2666 92.4413 53.8998 92.808 53.4998 93.1413C50.0998 95.6413 45.1998 96.0414 41.4998 93.9414C37.6998 91.9414 35.8 87.4413 36.4 83.3413C36.6 81.2413 37.5 79.2413 38.9 77.7413C40.4 76.1413 42.4 75.2413 44.4 74.7413C46.4 74.3413 48.5999 74.5413 50.5999 75.2413C52.4999 76.0413 54.1 77.4413 55.2 79.3413C57.2 82.7413 57.1 87.4413 54.7 90.6413C54.7 90.908 54.6666 91.1747 54.5999 91.4414C54.7999 91.7414 54.6999 91.9413 54.5999 92.0413Z" fill="#36174D"/>
<path d="M148.2 28.2413H156.3C155.9 30.1747 154.533 31.108 152.2 31.0413C150.2 30.908 148.867 29.9747 148.2 28.2413Z" fill="white"/>
<path d="M170.3 28.6413C170.3 28.9413 170 29.0414 169.8 29.0414C168.3 28.7414 166.7 28.8414 165.2 29.2414C164.6 29.3414 164.4 28.4414 164.9 28.3414C166.6 27.9414 168.3 27.8413 170 28.1413C170.3 28.1413 170.4 28.4413 170.3 28.6413Z" fill="#EE796A"/>
<path d="M167.7 28.7415C167.6 29.3415 167.4 29.8414 166.4 29.6414C166.467 29.5081 166.533 29.3748 166.6 29.2415C166.667 29.1081 166.733 28.9415 166.8 28.7415C166.8 28.4415 166.9 28.2415 167.5 28.4415C167.6 28.4415 167.7 28.6415 167.7 28.7415Z" fill="#EE796A"/>
<path d="M172.4 28.8414C172.3 29.0414 172.2 29.2414 171.9 29.2414C171.7 29.4414 171.5 29.3414 171.3 29.1414C169.5 28.6414 167.3 28.2414 165.7 27.1414C162.4 24.9414 160 22.6414 157.8 19.4414C155.6 16.3414 153.7 11.9414 152.7 8.34137C151.9 8.60804 151.167 8.90806 150.5 9.24139C145.4 11.9414 141.8 16.9414 140.8 22.7414C140.7 22.9414 140.6 23.0414 140.4 23.0414C140.3 23.5414 139.6 23.6414 139.5 23.1414C139.433 22.5414 139.367 21.9414 139.3 21.3414C139.1 16.5414 140.6 11.6414 143.6 7.84137C146.5 4.24137 150.8 1.64137 155.3 0.841371C160.3 -0.158629 165.7 0.941358 170 3.64136C172 4.84136 173.8 6.54138 175 8.54138C176.3 10.7414 176.9 13.3414 177 15.9414C177.1 20.5414 175.5 25.3414 172.4 28.8414Z" fill="#36174D"/>
<path d="M166.8 41.6414C164.5 43.8414 157.4 50.0414 150 47.9414C142.7 45.9414 142.2 37.7414 142.3 34.9414C150.433 37.1414 158.6 39.3747 166.8 41.6414Z" fill="#F6B399"/>
<path d="M155.9 37.8414C153.9 38.3414 151.8 38.2414 149.8 37.5414L149.9 36.6414C151.8 37.3414 153.8 37.4414 155.7 37.0414C156.3 36.8414 156.5 37.7414 155.9 37.8414Z" fill="#EE796A"/>
<path d="M150.7 37.4413C150.567 39.108 150.4 40.808 150.2 42.5413C150.2 43.0413 149.3 43.0413 149.4 42.5413C149.533 40.808 149.667 39.108 149.8 37.4413C149.8 36.8413 150.7 36.8413 150.7 37.4413Z" fill="#EE796A"/>
<path fill-rule="evenodd" clip-rule="evenodd" d="M146.8 23.3414C144.5 23.3414 142.6 21.4414 142.6 19.1414C142.6 16.7414 144.5 14.8414 146.8 14.8414C149.2 14.8414 151.1 16.7414 151.1 19.1414C151.1 21.4414 149.2 23.3414 146.8 23.3414ZM146.8 15.7415C145 15.7415 143.5 17.2414 143.5 19.1414C143.5 20.9414 145 22.4415 146.8 22.4415C148.7 22.4415 150.2 20.9414 150.2 19.1414C150.2 17.2414 148.7 15.7415 146.8 15.7415Z" fill="white"/>
<path d="M151.2 17.3414C151.1 17.5414 150.7 17.7414 150.5 17.5414C149.2 16.5414 147.7 15.7414 146.1 15.1414C145.8 15.0414 145.7 14.3415 146.2 14.2415C147.6 13.8415 149 13.7415 150 14.4415C150.9 15.0415 151.6 16.2414 151.2 17.3414Z" fill="#36174D"/>
<path fill-rule="evenodd" clip-rule="evenodd" d="M156.5 28.0414C154.2 28.0414 152.3 26.1414 152.3 23.7414C152.3 21.4414 154.2 19.5414 156.5 19.5414C158.9 19.5414 160.8 21.4414 160.8 23.7414C160.8 26.1414 158.9 28.0414 156.5 28.0414ZM156.5 20.4414C154.7 20.4414 153.2 21.9414 153.2 23.7414C153.2 25.6414 154.7 27.1414 156.5 27.1414C158.4 27.1414 159.9 25.6414 159.9 23.7414C159.9 21.9414 158.4 20.4414 156.5 20.4414Z" fill="white"/>
<path d="M161.6 21.2415C159.6 20.5081 157.5 19.9748 155.3 19.6414C154.5 19.4414 155.5 17.7415 155.8 17.5415C156.2 17.2415 156.8 17.1415 157.3 17.2415C159.2 17.6415 161.1 18.9414 162.2 20.6414C162.4 20.9414 162 21.4415 161.6 21.2415Z" fill="#36174D"/>
<path d="M152.9 23.4414C152.8 23.5414 152.5 23.4414 152.4 23.2414C152.2 22.6414 151.8 22.0414 151.3 21.7414C151.1 21.6414 150.9 21.5414 150 21.9414C149.9 22.1414 149.6 22.0414 149.5 21.9414C149.3 21.7414 149.3 21.5414 149.5 21.3414C150 20.6414 150.9 20.6414 151.6 20.9414C152.3 21.3414 152.8 22.0414 153.1 22.8414C153.2 23.0414 153.1 23.2414 152.9 23.4414Z" fill="white"/>
<path d="M128.9 22.1414V24.8414H37.7001V22.1414C37.7001 19.8414 39.4999 18.0414 41.7999 18.0414H124.8C127.1 18.0414 128.9 19.8414 128.9 22.1414Z" fill="#F66957"/>
<path d="M43.9999 44.7413C41.8666 46.9413 39.7334 49.1413 37.6 51.3413C36.8 52.2413 35.5 50.9413 36.3 50.1413C38.1666 48.208 40.0666 46.2413 41.9999 44.2413C39.9999 42.9747 37.9333 41.8413 35.8 40.8413C34.8 40.4413 35.7001 38.8413 36.7001 39.3413C39.1668 40.4746 41.5333 41.808 43.8 43.3413C44.3 43.7413 44.3999 44.3413 43.9999 44.7413Z" fill="white"/>
<path d="M28.9001 51.5414C26.4334 49.5414 23.8334 47.7413 21.1 46.1413C20.5 45.7413 20.5 44.9414 21.1 44.5414C23.6334 42.808 26.1334 41.0414 28.6 39.2414C29.6 38.6414 30.4999 40.1414 29.4999 40.8414C27.3666 42.308 25.2334 43.7747 23.1 45.2414C25.5667 46.8414 27.9335 48.5081 30.2001 50.2414C31.1001 51.0414 29.8001 52.2414 28.9001 51.5414Z" fill="white"/>
<path d="M42.2001 23.2413C43.0285 23.2413 43.7001 22.5698 43.7001 21.7413C43.7001 20.9129 43.0285 20.2413 42.2001 20.2413C41.3716 20.2413 40.7001 20.9129 40.7001 21.7413C40.7001 22.5698 41.3716 23.2413 42.2001 23.2413Z" fill="white"/>
<path d="M47.6 23.2413C48.4284 23.2413 49.1 22.5698 49.1 21.7413C49.1 20.9129 48.4284 20.2413 47.6 20.2413C46.7715 20.2413 46.1 20.9129 46.1 21.7413C46.1 22.5698 46.7715 23.2413 47.6 23.2413Z" fill="#19C5FF"/>
<path d="M52.9999 23.2413C53.8283 23.2413 54.4999 22.5698 54.4999 21.7413C54.4999 20.9129 53.8283 20.2413 52.9999 20.2413C52.1715 20.2413 51.4999 20.9129 51.4999 21.7413C51.4999 22.5698 52.1715 23.2413 52.9999 23.2413Z" fill="#FFBB4D"/>
<path d="M121.9 33.2414H71.6C70.5 33.2414 70.5 31.4414 71.6 31.4414H121.9C123 31.4414 123 33.2414 121.9 33.2414Z" fill="white"/>
<path d="M88.5 39.3414H71.7002C70.5002 39.3414 70.5002 37.5414 71.7002 37.5414H88.5C89.6 37.5414 89.6 39.3414 88.5 39.3414Z" fill="white"/>
<path d="M121.9 39.3414H93.2001C92.1001 39.3414 92.1001 37.5414 93.2001 37.5414H121.9C123 37.5414 123 39.3414 121.9 39.3414Z" fill="white"/>
<path d="M121.5 44.4414H107.8C106.7 44.4414 106.7 42.6414 107.8 42.6414H121.5C122.6 42.6414 122.6 44.4414 121.5 44.4414Z" fill="white"/>
<path d="M103.9 44.4414H71.6C70.5 44.4414 70.5 42.6414 71.6 42.6414H103.9C105 42.6414 105 44.4414 103.9 44.4414Z" fill="white"/>
<path fill-rule="evenodd" clip-rule="evenodd" d="M116.3 61.3414C113.8 61.7414 110.3 62.0414 108.9 64.5414C108.6 65.0414 107.8 64.5414 108.1 64.0414C108.5 63.4414 109.3 62.2414 108.5 61.5414C108.1 61.1414 107.5 61.4414 107.2 61.7414C106.733 62.0081 106.267 62.308 105.8 62.6414C104.1 63.9414 102.6 65.4414 101.4 67.2414C101.1 67.6414 100.4 67.3414 100.5 66.8414C100.9 65.6414 101.9 64.8414 102.7 63.8414C103.3 63.2414 103.8 62.4414 103.8 61.4414C103.7 60.5414 103 59.9414 102.1 60.3414C101.767 60.408 101.433 60.5747 101.1 60.8414C100.8 62.8414 99.7 64.6414 98.2 65.9414C97.9 66.1414 97.2999 66.0414 97.3999 65.6414C97.5999 64.1414 98.0999 62.7414 99.0999 61.5414C99.3999 61.1414 99.7998 60.7414 100.3 60.3414C100.367 59.808 100.367 59.2747 100.3 58.7414C98.2998 59.6414 96.4999 60.9414 94.8999 62.5414C94.6999 62.8414 94.3 62.6414 94.2 62.3414C93.6 62.8747 92.9999 63.3747 92.3999 63.8414C91.9999 64.1747 91.5666 64.4747 91.0999 64.7414C90.6999 65.0414 90.2 65.2414 89.7 65.2414C89 65.1414 88.5999 64.5414 88.5999 63.7414C88.5999 62.9414 88.9999 62.3414 89.3999 61.7414C89.6999 61.3414 89.9998 60.8414 89.9998 60.4414C89.8998 60.0414 89.5998 59.8414 89.2998 59.8414C88.4998 59.8414 87.7 60.4414 87.2 60.9414C86.9333 61.1414 86.6666 61.3414 86.3999 61.5414C86.3999 62.7414 85.9998 64.0414 85.4998 65.1414C84.8998 66.3414 83.9998 67.4414 82.9998 68.3414C82.5998 68.6414 82.2 68.3414 82.2 67.9414C82.6 65.7414 83.4998 63.7414 84.7998 62.0414C84.9998 61.7747 85.2331 61.5081 85.4998 61.2414C85.4998 60.4414 85.0998 59.8414 84.2998 59.7414C83.3998 59.5414 82.5 59.9414 81.7 60.4414C80.8333 60.9747 80.0332 61.608 79.2998 62.3414C79.2998 62.8414 79.2 63.4414 79.2 63.9414C79.0667 64.6747 78.8666 65.408 78.5999 66.1414C78.3999 66.7414 78.2 67.5414 77.7 67.9414C77.2 68.4414 76.4998 68.4414 75.9998 68.0414C75.4998 67.5414 75.3999 66.8414 75.5999 66.2414C75.6999 65.5414 76.1999 64.8414 76.5999 64.2414C76.9999 63.6414 77.4333 63.0747 77.8999 62.5414C78.0333 62.3414 78.1999 62.1414 78.3999 61.9414C78.3999 61.6414 78.4 61.2414 78.2 60.9414C78 60.5414 77.5999 60.1414 77.0999 60.2414C76.7999 60.3414 76.5998 60.7414 76.7998 61.0414C77.1998 61.5414 76.3998 61.9414 75.9998 61.5414C75.6998 60.9414 75.7998 60.2414 76.2998 59.7414C76.6998 59.2414 77.4999 59.2414 78.0999 59.5414C78.6999 59.9414 79.1 60.5414 79.2 61.2414C79.8 60.7081 80.3998 60.2414 80.9998 59.8414C81.9998 59.2414 83.1998 58.6414 84.2998 58.8414C85.2998 58.9414 85.9998 59.6414 86.2998 60.4414C86.4332 60.3747 86.5667 60.2747 86.7 60.1414C87.4 59.5414 88.0998 59.0414 88.9998 58.9414C89.7998 58.9414 90.5998 59.2414 90.7998 60.0414C91.0998 61.0414 90.3999 61.9414 89.8999 62.6414C89.5999 62.9414 89.0999 63.9414 89.5999 64.3414C89.9999 64.5414 90.5999 64.0414 90.8999 63.8414C91.2999 63.5747 91.6665 63.308 91.9998 63.0414C92.7998 62.4414 93.4999 61.7747 94.0999 61.0414C94.2999 59.8414 95.0998 58.8414 96.2998 58.3414C96.5998 58.1414 96.9998 58.6414 96.7998 58.9414C96.3998 59.5414 95.9999 60.1414 95.5999 60.7414C97.0999 59.4414 98.6999 58.4414 100.6 57.6414C100.8 57.6414 101.1 57.7414 101.1 58.0414C101.167 58.5747 101.2 59.1414 101.2 59.7414C101.6 59.5414 101.967 59.408 102.3 59.3414C103.5 59.1414 104.4 59.9414 104.6 61.1414C104.667 61.608 104.633 62.108 104.5 62.6414C105.033 62.108 105.6 61.6414 106.2 61.2414C106.8 60.9414 107.3 60.5414 108 60.4414C108.6 60.4414 109.1 60.7414 109.4 61.2414C109.667 61.6414 109.767 62.008 109.7 62.3414C111.5 61.1414 114 60.8414 116.1 60.5414C116.6 60.4414 116.9 61.2414 116.3 61.3414ZM78.2 64.3414C78.2667 64.008 78.3333 63.6747 78.3999 63.3414C77.9333 63.8747 77.5333 64.4081 77.2 64.9414C76.9 65.3414 76.4999 65.9414 76.3999 66.4414C76.2999 66.7414 76.2998 67.0414 76.4998 67.2414C76.5998 67.4414 76.7998 67.5414 76.9998 67.4414C77.3998 67.2414 77.6 66.4414 77.7 66.0414C77.9 65.508 78.0667 64.9414 78.2 64.3414ZM85.2 63.0414C84.4 64.108 83.7999 65.308 83.3999 66.6414C84.3999 65.5414 85.1 64.1414 85.2 63.0414ZM98.5999 64.2414C99.1332 63.5747 99.5666 62.8081 99.8999 61.9414C99.7666 62.1414 99.6331 62.3414 99.4998 62.5414C99.0998 63.0747 98.7999 63.6414 98.5999 64.2414Z" fill="white"/>
<path d="M129.5 95.9413C126.9 95.9413 123.2 96.5413 121.3 94.4413C119.5 92.6413 120.1 89.6413 120.1 87.2413C120.1 84.3747 120.1 81.4747 120.1 78.5413C120.1 74.9413 120.1 71.3413 120.1 67.5413C120.1 66.4413 120.6 65.2413 121.5 64.4413C122.4 63.6413 123.6 63.2413 124.9 63.2413H129.2C129.8 63.2413 129.8 64.1413 129.2 64.1413C126.267 64.1413 124.767 64.1413 124.7 64.1413C123.7 64.1413 122.8 64.4413 122.1 65.1413C121.5 65.7413 121 66.5413 121 67.5413C121 70.5413 121 73.508 121 76.4413C121 79.6413 121 82.8413 121 86.0413C121 87.508 121 88.9747 121 90.4413C120.9 91.6413 121 92.9413 121.9 93.8413C123.6 95.7413 127.2 95.0413 129.5 95.0413C130.1 95.0413 130.1 95.9413 129.5 95.9413Z" fill="white"/>
<path d="M169.5 42.4413C167 45.4413 159.8 53.0413 150 50.3413C139.7 47.4413 139.7 37.5413 140.1 34.2413C140.567 34.4413 141.033 34.608 141.5 34.7413C141.767 34.808 142.033 34.8747 142.3 34.9413C142.2 37.7413 142.7 45.9413 150 47.9413C157.4 50.0413 164.5 43.8413 166.8 41.6413C167.2 41.7746 167.567 41.908 167.9 42.0413C168.433 42.1747 168.967 42.308 169.5 42.4413Z" fill="white"/>
</svg>
