<svg width="730" height="529" viewBox="0 0 730 529" fill="none" xmlns="http://www.w3.org/2000/svg">
<g clip-path="url(#clip0_247_112)">
<path fill-rule="evenodd" clip-rule="evenodd" d="M494.64 142.74C491.38 138.49 488.06 134.5 484.65 130.77C457.19 99.31 417.83 79.1 376.39 73.73C355.92 70.91 334.86 71.67 314.27 76.74C297.2 81.13 279.26 88.6 266.65 100.91C282.33 114.89 292.53 136.52 289.5 157.76C288.23 168.24 282.45 179.96 272.49 184.26C261.05 189.39 250.26 181.78 244.2 172.16C232.02 151.65 237.06 124.71 250.92 106.5C252.53 104.73 254.3 102.86 256.24 100.9C253.25 98.67 250.28 96.87 247.33 95.48C228.25 84.71 205.37 84.55 185.11 91.38C138.32 106.61 108.44 150.77 94.62 195.67C93.54 199.54 86.86 198.08 88.44 193.94C90.17 187.75 92.33 181.55 94.91 175.32C113.75 128.9 152.06 85.87 204.42 80.53C224.92 78.77 244.74 83.91 260.85 96.35C277.15 81.33 299.1 72.89 320.75 68.54C342.4 64.19 365.28 64.35 387.85 68.59C432.5 77.36 473.87 102.3 500.09 139.67C502.53 142.86 496.59 146.2 494.65 142.73L494.64 142.74ZM260.99 104.74C257.77 108.28 254.91 112.07 252.39 116.09C247.25 125.49 243.95 135.82 244.22 146.74C244.22 157.16 247.59 168.95 255.29 175.69C259 178.82 264.41 180.33 269.42 178.82C273.66 177.09 277 172.61 279.35 168.68C284.27 160.05 284.76 149.35 282.51 139.55C279.57 126.22 271.35 113.91 260.99 104.75V104.74Z" fill="#DADEF1"/>
<path d="M705.94 252.42C706.08 254.29 711.57 326.34 716.1 385.76C720.63 445.18 725.73 512.08 677.32 525.18C631.18 537.17 592.4 516.12 580.79 444.07C576.52 418.98 572.51 397.17 568.82 379.57C567.26 379.69 565.71 379.96 564.18 380.39C551.55 381.35 539.57 378.5 529.24 372.7L505.07 401.37L307.82 357.11L355.85 277.22L336.74 273.5L337.43 270.15C314.66 261.53 297.5 240.25 295.54 214.52C294.08 195.34 302.95 169.72 318.5 157.71C336.72 143.62 363.49 142.99 385.01 147.46C413.03 152.85 441.22 158.39 469.57 164.07C471.8 164.53 474.02 164.83 476.23 164.97C475.54 180.55 479.07 226.87 528.29 236.77C575.1 245.91 606.08 207.78 616.71 192.86C624.02 194.18 631.51 195.65 639.16 197.27C644.25 198.14 649.34 199.16 654.45 200.34C664.06 202.9 673.23 205.97 681.15 211.01C697.41 220.59 704.7 236.04 705.95 252.41L705.94 252.42Z" fill="#FFBB4D"/>
<path d="M728.88 238.44C728.44 245.06 724.66 251 719.8 255.13C708.35 265.41 689.89 264 675.67 262.73C660.48 261.06 645.08 256.59 632.57 246.72C627.07 242.43 621.96 237.18 618.22 231.34C614.41 224.57 612.44 217.19 611.36 209.28C610.29 201.36 610.58 192.87 611.38 184.81C612.03 176.92 612.84 169.01 613.81 161.1C615.48 145.91 618.51 130.15 626.4 116.38C626.83 115.88 627.73 115.34 628.2 115.3C623.03 102.99 620.12 89.56 616.78 76.64C616.13 74.34 620.24 72.61 620.92 75.38C621.85 79.39 622.79 83.39 623.72 87.4C627.78 103.56 632.73 119.18 642.22 132.58C646.43 138.38 651.53 143.63 657.5 147.89C663.97 152.57 671.28 155.78 678.58 158.99C684.95 162.27 691.39 166.48 696.53 172.21C698.62 174.87 700.7 177.54 701.89 180.74C703.11 184.41 703.43 188.62 703.25 192.4C703.07 196.18 702.92 200.42 704.14 204.1C704.82 206.87 706.87 209.07 708.92 211.26C713.45 215.15 718.85 218.03 722.91 221.96C727.48 226.32 729.81 232.26 728.87 238.45L728.88 238.44Z" fill="#36174D"/>
<path d="M654.88 249.25C654.95 250.19 653.65 251.7 652.72 251.77L640.09 252.73C605.47 255.37 570.86 258.16 536.26 261.11C527.55 262.09 518.83 262.91 510.1 263.58C504.02 264.04 496.14 265.59 490.63 261.3C488.11 259.14 486.93 255.94 485.74 252.73C484.95 248.55 484.2 244.85 483.41 240.67L478.71 216.09C475.81 215.06 473.21 213.84 470.9 212.45C463.96 207.8 457.81 201.21 454.83 192.97C453.54 188.36 453.35 183.83 454.26 179.37C455.34 175.05 457.36 170.66 457.94 165.91C458.2 156.95 452.41 148.92 450.83 140.57C449.36 133.62 450.73 126.93 454.01 120.56C457.29 114.19 461.58 108.69 465.36 102.75C466.75 100.45 467.98 98 469.04 95.41C469.37 81.27 470.5 65.18 474.14 57.37C479.33 45.21 485.45 39.1 495.14 30.36C516.71 10.83 541.76 12.22 569.97 18.07C571.41 18.43 571.52 19.83 571.59 20.77C576.08 22 580.45 23.86 584.72 26.36C618.21 45.92 623.4 89.29 630.25 123.59C638.48 165.63 646.69 207.51 654.89 249.24L654.88 249.25Z" fill="#36174D"/>
<path d="M486.77 167.48C525.61 174.87 564.61 182.41 603.79 190.09C593.81 201.2 562.81 232.74 527.44 225.56C492.57 218.81 487.31 180.62 486.78 167.48H486.77Z" fill="#FFBB4D"/>
<path d="M694.74 469.74C692.75 460.17 690.61 450.61 688.32 441.06C680.1 407.33 669.62 374.72 656.36 342.79C655.21 340.05 659.35 338.8 660.03 341.57C663.84 350.38 667.5 359.35 671.02 368.5C682.94 401.47 692.1 435.13 698.95 469.43C699.13 471.77 695.39 472.05 694.74 469.75V469.74Z" fill="white"/>
<path d="M602.94 364.27C602.67 373.07 602.55 381.87 602.6 390.65C602.15 421.74 601.68 452.68 601.2 483.46C601.41 486.27 597.13 485.65 596.95 483.31C597.22 474.51 597.34 465.71 597.29 456.93C597.74 425.84 598.21 394.9 598.69 364.12C598.94 361.28 602.76 361.93 602.94 364.27Z" fill="white"/>
<path d="M565.3 148.32L563.54 199.28L522.73 194.86L522.78 176.97L522.93 172.72L522.95 148.25L565.31 148.32H565.3Z" fill="#F6B399"/>
<path d="M624.61 99.09C622.95 106.12 620.62 112.57 617.61 118.45C611.81 128.77 603.09 137.91 593.23 144.31C579.4 166.54 553.04 178.9 525.77 172.98C494.68 166.41 473.72 138.36 475.15 107.66C475.2 104.21 475.72 100.71 476.7 97.19C478.07 90.5 480.27 84.37 483.3 78.81C483.71 75.96 484.26 72.93 484.96 69.74C492.83 31.02 530.96 6.46999 569.21 14.38C607.96 22.72 632.48 60.38 624.61 99.1V99.09Z" fill="#F6B399"/>
<path d="M555.86 110.92C555.57 113.29 552.87 114.91 550.5 114.62C548.09 113.86 546.51 111.63 547.26 109.22C547.55 106.85 550.25 105.23 552.62 105.52C555.03 106.28 556.61 108.51 555.86 110.92Z" fill="#36174D"/>
<path d="M515.71 96.57C515.42 98.94 512.72 100.56 510.31 99.81C507.94 99.52 506.32 96.82 507.07 94.41C507.36 92.04 510.06 90.42 512.47 91.17C514.84 91.46 516.46 94.16 515.71 96.57Z" fill="#36174D"/>
<path d="M520.91 121.59C516.7 121.91 513.61 118.38 513.29 114.17C512.43 109.06 516.36 105 518.91 101.51C521.47 98.02 522.62 94.64 521.36 90.5C520.14 86.83 520.83 83.48 517.44 82.33C514.53 81.14 513.81 77.9 516.25 79.13C523.01 81.44 526.93 89.61 526.06 96.73C524.98 101.05 521.92 104.11 519.36 107.59C518.1 109.57 516.87 112.01 517.52 114.32C517.63 115.72 519.17 117.49 520.58 117.38C523.39 117.17 523.71 121.38 520.9 121.59H520.91Z" fill="#EE796A"/>
<path d="M603.67 145.39C613.23 144.66 620.39 136.32 619.66 126.76C618.93 117.2 610.59 110.04 601.03 110.77C591.47 111.5 584.31 119.84 585.04 129.4C585.77 138.96 594.11 146.12 603.67 145.39Z" fill="#F6B399"/>
<path d="M511.98 134.03L549.88 131.14C548.7 140.33 542.64 145.18 531.7 145.7C522.3 145.79 515.73 141.9 511.99 134.03H511.98Z" fill="white"/>
<path d="M615.52 128.02C615.63 129.42 614.26 130 613.32 130.07C606.2 129.2 598.74 130.24 591.87 132.65C589.1 133.33 587.84 129.19 590.15 128.55C597.96 126.07 605.88 125 613.94 125.8C615.34 125.69 615.92 127.06 615.52 128.03V128.02Z" fill="#EE796A"/>
<path d="M603.39 129.42C603.14 132.26 602.38 134.67 597.63 134.09C597.9 133.44 598.16 132.8 598.42 132.15C598.69 131.5 598.94 130.7 599.18 129.74C599.07 128.34 599.47 127.37 602.35 128.09C602.82 128.05 603.36 128.95 603.39 129.42Z" fill="#EE796A"/>
<path d="M625.42 128.21C625.02 129.18 624.63 130.15 623.22 130.26C622.36 131.27 621.38 130.87 620.38 130.01C611.78 128.31 601.34 127.23 593.47 122.65C577.25 113.53 565.2 103.63 553.76 89.44C542.36 75.72 531.9 55.81 525.94 39.33C522.29 40.86 518.97 42.53 515.97 44.33C493.07 58.78 478.01 83.46 475.4 110.95C475 111.92 474.57 112.42 473.64 112.5C473.35 114.87 470.11 115.59 469.46 113.29C468.93 110.51 468.41 107.72 467.88 104.94C465.23 82.55 470.5 59.09 483.18 40.25C495.46 22.37 514.66 8.66999 535.42 3.32999C558.46 -3.13001 584.11 0.0899887 605.19 11.19C614.98 16.09 624 23.4 630.33 32.33C637.2 42.16 640.93 54.11 642.33 66.24C644.44 87.73 638.66 110.75 625.41 128.23L625.42 128.21Z" fill="#36174D"/>
<path d="M603.78 190.09C593.8 201.2 562.8 232.74 527.43 225.56C492.56 218.81 487.3 180.62 486.77 167.48C525.61 174.87 564.61 182.41 603.79 190.09H603.78Z" fill="#F6B399"/>
<path d="M551.43 176.2C542.25 179.25 532.39 179.53 522.78 176.97L522.93 172.72C532.07 175.32 541.46 175.07 550.21 172.52C552.95 171.37 554.2 175.51 551.43 176.19V176.2Z" fill="#EE796A"/>
<path d="M526.96 176.18C526.93 184.03 526.76 192.04 526.44 200.22C526.62 202.56 522.41 202.88 522.7 200.51C522.7 192.35 522.72 184.35 522.75 176.51C522.54 173.7 526.75 173.38 526.96 176.19V176.18Z" fill="#EE796A"/>
<path fill-rule="evenodd" clip-rule="evenodd" d="M503.68 111.6C492.92 112.42 483.35 104.21 482.53 93.45C481.67 82.22 489.89 72.65 500.65 71.83C511.41 71.01 521.45 79.19 522.3 90.41C523.12 101.17 514.91 110.74 503.68 111.59V111.6ZM500.97 76.05C492.55 76.69 486.07 84.24 486.74 93.13C487.38 101.55 494.93 108.03 503.36 107.39C512.25 106.71 518.73 99.16 518.09 90.74C517.41 81.85 509.86 75.37 500.97 76.05Z" fill="white"/>
<path d="M522.13 81.96C521.73 82.93 519.93 84.01 518.93 83.15C512.49 78.93 505.19 75.73 497.49 73.49C496.05 73.13 495.33 69.89 497.64 69.24C504.05 66.87 510.56 65.9 515.49 68.82C519.91 71.31 523.62 76.67 522.14 81.96H522.13Z" fill="#36174D"/>
<path fill-rule="evenodd" clip-rule="evenodd" d="M550.74 130.14C539.98 130.96 530.41 122.75 529.56 111.52C528.71 100.29 536.95 91.19 547.71 90.37C558.94 89.51 568.51 97.73 569.33 108.49C570.19 119.72 561.97 129.29 550.75 130.14H550.74ZM548.03 94.58C539.61 95.22 533.13 102.77 533.77 111.2C534.45 120.09 542 126.57 550.42 125.93C559.31 125.25 565.79 117.7 565.11 108.81C564.47 100.39 556.92 93.91 548.03 94.58Z" fill="white"/>
<path d="M572.18 96.5C562.56 93.78 552.55 92.04 542.13 91.26C538.32 90.61 542.39 82.3 543.72 81.26C545.48 79.71 548.26 79.03 550.63 79.32C559.66 80.51 569.01 85.92 574.77 93.48C575.81 94.81 574.12 97.29 572.18 96.5Z" fill="#36174D"/>
<path d="M532.26 109.9C531.83 110.4 530.39 110.04 529.85 109.14C528.7 106.4 526.61 103.74 524.17 102.51C523.2 102.11 522.23 101.72 518.16 103.91C517.76 104.88 516.32 104.52 515.82 104.09C514.81 103.23 514.74 102.29 515.61 101.28C517.7 97.83 521.91 97.51 525.29 98.66C528.71 100.28 531.3 103.38 532.99 107.01C533.53 107.91 533.13 108.88 532.27 109.89L532.26 109.9Z" fill="white"/>
<path d="M616.7 192.87C606.07 207.8 575.1 245.92 528.28 236.78C479.06 226.89 475.53 180.57 476.22 164.98C478.48 165.75 480.72 166.36 482.95 166.82C484.22 167.04 485.49 167.25 486.76 167.47C487.29 180.61 492.55 218.79 527.42 225.55C562.79 232.74 593.8 201.2 603.77 190.08C605.69 190.56 607.45 191.05 609.06 191.56C611.6 191.99 614.15 192.43 616.69 192.86L616.7 192.87Z" fill="white"/>
<path fill-rule="evenodd" clip-rule="evenodd" d="M254.94 488.83C254.02 490.67 253.1 491.59 251.26 491.59C240.22 492.82 228.88 494.04 217.23 495.27C214.47 496.19 213.55 492.51 213.55 490.67C215.39 481.47 218.46 472.58 222.75 464C219.07 460.32 224.59 454.8 228.27 458.48C236.85 467.06 245.44 475.96 254.02 485.15C254.94 486.07 255.86 487.91 254.94 488.83ZM222.75 486.99C229.5 486.38 236.24 485.46 242.98 484.23L229.18 470.43C226.11 475.95 223.97 481.47 222.74 486.99H222.75Z" fill="#F66957"/>
<path d="M434.33 138.62C425.09 134 421.28 122.85 425.9 113.6C430.52 104.35 441.94 100.55 451.19 105.17C460.43 110.07 463.97 121.22 459.35 130.46C454.73 139.71 443.58 143.51 434.34 138.62H434.33Z" fill="#19C5FF"/>
<path d="M401.71 198.46C395.46 195.47 392.74 187.85 396 181.6C399.26 175.35 406.88 172.9 412.86 175.89C419.11 179.15 421.83 186.77 418.57 193.02C415.58 199.28 407.97 201.72 401.71 198.46Z" fill="#F66957"/>
<path d="M456.9 221.03C452.28 218.85 450.37 212.87 452.82 208.25C455 203.36 460.98 201.45 465.6 203.9C470.49 206.35 472.4 212.06 469.95 216.95C467.5 221.57 461.79 223.48 456.9 221.03Z" fill="#FFBB4D"/>
<path d="M474.87 117H61.8399C46.5499 117 34.1599 129.39 34.1599 144.68V438.57C34.1599 453.86 46.5499 466.26 61.8399 466.26H474.88C490.17 466.26 502.56 453.86 502.56 438.57V144.68C502.56 129.39 490.17 117 474.88 117H474.87Z" fill="#DADEF1"/>
<path d="M502.55 145.39V438.57C502.55 454.19 489.78 466.26 474.87 466.26H338.61V117H474.87C489.77 117 502.55 129.78 502.55 145.4V145.39Z" fill="#F5F5FA"/>
<path d="M502.55 145.39V155.33H34.1599V145.39C34.1599 129.77 46.2299 116.99 61.8399 116.99H474.88C489.78 116.99 502.56 129.77 502.56 145.39H502.55Z" fill="#F66957"/>
<path d="M475.21 238.33C439.25 242.59 403.3 244.48 367.34 244.01C361.66 244.01 361.66 236.2 367.34 236.2C403.3 236.67 439.25 234.78 475.21 230.52C480.18 229.81 480.18 238.33 475.21 238.33Z" fill="#DADEF1"/>
<path d="M385.79 269.83C385.08 271.96 382.95 273.38 380.82 272.67C379.4 272.67 377.98 272.67 373.72 271.96H365.91C363.78 271.96 362.36 269.83 362.36 267.7C361.65 265.57 363.78 263.44 365.91 263.44C371.59 263.44 377.26 263.91 382.94 264.86C385.07 265.57 386.49 267.7 385.78 269.83H385.79Z" fill="#DADEF1"/>
<path d="M457.96 198.82C456.44 200.46 451.86 201.55 447.28 201.01C444.23 201.01 441.18 201.01 432.02 200.46H415.23C410.65 200.46 407.6 198.82 407.6 197.18C406.08 195.54 410.65 193.9 415.23 193.9C427.44 193.9 439.65 194.26 451.86 194.99C456.44 195.54 459.49 197.18 457.97 198.82H457.96Z" fill="#DADEF1"/>
<path d="M468.11 269.12C445.87 270.07 423.64 271.01 401.4 271.96C396.43 271.96 396.43 264.15 401.4 263.44C423.64 262.49 445.87 261.55 468.11 260.6C473.08 260.6 473.08 269.12 468.11 269.12Z" fill="#DADEF1"/>
<path d="M470.95 295.8C437.36 297.22 403.53 297.93 369.46 297.93C363.78 297.22 363.78 289.41 369.46 289.41C403.53 289.88 437.36 289.41 470.95 287.99C476.63 287.28 476.63 295.8 470.95 295.8Z" fill="#DADEF1"/>
<path d="M475.63 318.09C439.67 322.35 403.72 324.24 367.76 323.77C362.08 323.77 362.08 315.96 367.76 315.96C403.72 316.43 439.67 314.54 475.63 310.28C480.6 309.57 480.6 318.09 475.63 318.09Z" fill="#DADEF1"/>
<path d="M386.21 377.58C385.5 379.71 383.37 381.13 381.24 380.42C379.82 380.42 378.4 380.42 374.14 379.71H366.33C364.2 379.71 362.78 377.58 362.78 375.45C362.07 373.32 364.2 371.19 366.33 371.19C372.01 371.19 377.68 371.66 383.36 372.61C385.49 373.32 386.91 375.45 386.2 377.58H386.21Z" fill="#DADEF1"/>
<path d="M468.54 376.87C446.3 377.82 424.07 378.76 401.83 379.71C396.86 379.71 396.86 371.9 401.83 371.19C424.07 370.24 446.3 369.3 468.54 368.35C473.51 368.35 473.51 376.87 468.54 376.87Z" fill="#DADEF1"/>
<path d="M471.37 349.64C437.78 351.06 403.95 351.77 369.88 351.77C364.2 351.06 364.2 343.25 369.88 343.25C403.95 343.72 437.78 343.25 471.37 341.83C477.05 341.12 477.05 349.64 471.37 349.64Z" fill="#DADEF1"/>
<path d="M377.01 206.94C387.53 206.94 396.07 198.4 396.07 187.88C396.07 177.36 387.54 168.82 377.01 168.82C366.48 168.82 357.96 177.35 357.96 187.88C357.96 198.41 366.49 206.94 377.01 206.94Z" fill="#19C5FF"/>
<path d="M91.6399 229.16C91.6399 231.29 89.5099 232.71 87.3799 232.71H69.6399C67.5099 232.71 65.3799 231.29 65.3799 229.16C65.3799 227.03 67.5099 224.9 69.6399 224.9H87.3799C89.5099 224.9 91.6399 226.32 91.6399 229.16Z" fill="white"/>
<path d="M147.71 232.71H103C97.32 232.71 97.32 224.9 103 224.9H147.71C152.68 224.9 152.68 232.71 147.71 232.71Z" fill="white"/>
<path d="M483.51 186.34H412.09C403.02 186.34 403.02 173.87 412.09 173.87H483.51C491.45 173.87 491.45 186.34 483.51 186.34Z" fill="#DADEF1"/>
<path d="M468.96 442.37H397.54C388.47 442.37 388.47 419.15 397.54 419.15H468.96C476.9 419.15 476.9 442.37 468.96 442.37Z" fill="#DADEF1"/>
<path d="M86.5 322C90.088 322 93 319.092 93 315.5C93 311.908 90.092 309 86.5 309C82.908 309 80 311.908 80 315.5C80 319.092 82.908 322 86.5 322Z" fill="#19C5FF" fill-opacity="0.3"/>
<path d="M202.43 168.78H169.93C164.324 168.78 159.78 173.324 159.78 178.93V201.28C159.78 206.886 164.324 211.43 169.93 211.43H202.43C208.036 211.43 212.58 206.886 212.58 201.28V178.93C212.58 173.324 208.036 168.78 202.43 168.78Z" fill="white"/>
<path d="M241.01 282.51H208.51C202.904 282.51 198.36 287.054 198.36 292.66V315.01C198.36 320.616 202.904 325.16 208.51 325.16H241.01C246.616 325.16 251.16 320.616 251.16 315.01V292.66C251.16 287.054 246.616 282.51 241.01 282.51Z" fill="white"/>
<path d="M283.66 390.15H251.16C245.554 390.15 241.01 394.694 241.01 400.3V422.65C241.01 428.256 245.554 432.8 251.16 432.8H283.66C289.266 432.8 293.81 428.256 293.81 422.65V400.3C293.81 394.694 289.266 390.15 283.66 390.15Z" fill="white"/>
<path d="M200.4 388.12H167.9C162.294 388.12 157.75 392.664 157.75 398.27V420.62C157.75 426.226 162.294 430.77 167.9 430.77H200.4C206.006 430.77 210.55 426.226 210.55 420.62V398.27C210.55 392.664 206.006 388.12 200.4 388.12Z" fill="white"/>
<path d="M117.13 388.12H84.63C79.0243 388.12 74.48 392.664 74.48 398.27V420.62C74.48 426.226 79.0243 430.77 84.63 430.77H117.13C122.736 430.77 127.28 426.226 127.28 420.62V398.27C127.28 392.664 122.736 388.12 117.13 388.12Z" fill="white"/>
<path d="M161.81 282.51H129.31C123.704 282.51 119.16 287.054 119.16 292.66V315.01C119.16 320.616 123.704 325.16 129.31 325.16H161.81C167.416 325.16 171.96 320.616 171.96 315.01V292.66C171.96 287.054 167.416 282.51 161.81 282.51Z" fill="white"/>
<path d="M186.26 229.71C186.26 234.79 184.23 243.25 200.48 245.96C224.85 250.02 225.87 267.96 224.85 273.38" stroke="white" stroke-width="4" stroke-linecap="round"/>
<path d="M224.85 335.31C224.85 340.39 222.82 348.85 239.07 351.56C263.44 355.62 264.46 373.56 263.44 378.98" stroke="white" stroke-width="4" stroke-linecap="round"/>
<path d="M225.02 335.31C225.02 340.39 227.05 348.85 210.8 351.56C186.43 355.62 185.41 373.56 186.43 378.98" stroke="white" stroke-width="4" stroke-linecap="round"/>
<path d="M141.75 335.31C141.75 340.39 143.78 348.85 127.53 351.56C103.16 355.62 102.14 373.56 103.16 378.98" stroke="white" stroke-width="4" stroke-linecap="round"/>
<path d="M186.43 229.71C186.43 234.79 188.46 243.25 172.21 245.96C147.84 250.02 146.82 267.96 147.84 273.38" stroke="white" stroke-width="4" stroke-linecap="round"/>
<path d="M67.38 183C72.43 183 76.52 178.91 76.52 173.86C76.52 168.81 72.43 164.72 67.38 164.72C62.33 164.72 58.24 168.81 58.24 173.86C58.24 178.91 62.33 183 67.38 183Z" fill="#19C5FF"/>
<path d="M64.07 142C67.29 142 69.91 139.39 69.91 136.16C69.91 132.93 67.3 130.32 64.07 130.32C60.84 130.32 58.23 132.93 58.23 136.16C58.23 139.39 60.84 142 64.07 142Z" fill="white"/>
<path d="M85.08 142C88.3 142 90.92 139.39 90.92 136.16C90.92 132.93 88.31 130.32 85.08 130.32C81.85 130.32 79.24 132.93 79.24 136.16C79.24 139.39 81.85 142 85.08 142Z" fill="#19C5FF"/>
<path d="M106.08 142C109.3 142 111.92 139.39 111.92 136.16C111.92 132.93 109.31 130.32 106.08 130.32C102.85 130.32 100.24 132.93 100.24 136.16C100.24 139.39 102.85 142 106.08 142Z" fill="#FFBB4D"/>
<path fill-rule="evenodd" clip-rule="evenodd" d="M53.3799 266.15C49.6999 272.28 46.0199 278.11 42.3399 283.63C39.5799 288.23 35.8999 295.59 29.4599 294.67C26.6999 294.67 23.9399 291.91 22.0999 290.07C19.6499 287.62 17.4999 285.16 15.6599 282.71C11.3699 277.81 7.07994 273.21 2.77994 268.91C0.019943 268.91 -0.900057 264.31 0.939943 262.47C1.85994 259.71 4.61994 258.79 6.45994 260.63C21.1799 260.02 35.5799 260.02 49.6899 260.63C53.3699 260.63 55.2099 263.39 53.3699 266.15H53.3799ZM43.2599 267.99H13.8299C15.6699 270.44 17.1999 272.59 18.4299 274.43C20.8799 276.27 23.0299 278.42 24.8699 280.87C26.7099 282.71 28.5499 285.47 33.1499 284.55C34.3799 282.1 35.9099 279.64 37.7499 277.19L43.2699 267.99H43.2599Z" fill="#FFBB4D"/>
<path d="M232.8 53.17C228.2 60.53 219.92 62.37 211.64 60.53C204.28 58.69 197.84 52.25 196.01 39.38C196.62 35.09 198.77 31.1 202.45 27.42C205.21 24.66 209.81 22.82 213.49 21.9C221.77 20.06 230.04 23.74 233.72 31.1C237.4 38.46 237.4 46.74 232.8 53.17Z" fill="#19C5FF"/>
<path fill-rule="evenodd" clip-rule="evenodd" d="M105.84 73.28C101.21 75.39 97 78.12 93.21 81.49C91.95 82.75 89.42 82.75 88.79 80.86C86.9 76.44 85 72.02 81.85 65.08C81.85 63.82 82.48 62.55 85.01 61.29C87.11 60.45 89.01 59.4 90.69 58.13C93.22 56.87 95.74 54.97 98.27 56.24C100.8 57.5 102.06 60.03 102.69 61.92C103.95 64.45 105.22 66.97 106.48 69.5C107.11 70.76 107.11 72.66 105.85 73.29L105.84 73.28ZM92.58 75.17C95.11 73.07 97.84 71.17 100.79 69.49C99.95 68.23 99.1 66.96 98.26 65.7C97.63 64.44 97.63 63.81 95.1 61.91C94.26 62.76 93.21 63.39 91.94 63.8C91.1 64.65 90.05 65.49 88.78 66.33C90.04 69.28 91.31 72.23 92.57 75.17H92.58Z" fill="#FFBB4D"/>
<path d="M635.42 382.97C625.34 386.56 614.8 384.07 606.81 378.09C599.36 373.01 596.2 368.55 594.59 359.73C590.7 364.26 584.8 367.06 579.79 369.33C574.35 372.1 567.16 370.29 561.73 366.94C556.8 364.02 554.03 358.59 553.1 352.54C549.64 356.57 543.56 357.03 539.17 355.01C532.41 352.7 526.62 344.67 526.62 338.55C516.36 339.8 507.81 326.34 510.58 319.54C512.96 313.71 514.55 309.83 519.16 302.42C520 301.1 521 299.77 522.15 298.43C517.54 299.72 512.97 301.48 508.44 303.71C503.93 306.25 499.59 309.09 495.44 312.23C491.01 315.86 487.05 319.46 482.08 322.19C477.54 324.42 472.94 325.71 467.72 325.17C463.4 324.09 459.01 322.07 456.79 317.53C452.87 309.36 458.31 300.47 463.54 294.9C477.8 278.28 495.55 264.23 517.37 260.21C537.31 256.34 557.93 261.35 575.99 269.86C588.72 276.42 601.13 284.88 611.74 294.43C621.38 303.58 633.65 310.17 643.35 320.26C654.57 331.64 664.17 346.44 657.43 362.95C653.43 372.2 645.07 379.89 635.43 382.98L635.42 382.97Z" fill="#F6B399"/>
<path d="M579.51 371.7C568.86 373.92 554.18 366.57 553.29 354.88C548.29 357.14 542.13 356.67 537.28 354.69C532.86 352.2 527.86 348.35 526.06 343.31L525.77 339.57C520.19 340.47 514.76 337.12 512.06 332.62C506.56 322.22 512.22 310.02 517.66 301.13C523.89 290.3 532.14 281.2 542.44 274.3C544.24 273.22 546.33 275.89 544.06 277C539 280.52 534.44 284.63 530.41 289.33C526.95 293.36 523.83 297.67 521.04 302.28C518.12 307.21 515.64 311.63 514.16 316.92C513.08 321.24 513 326.42 515.19 330.49C516.88 334.13 520.84 336.65 525.98 336.26C527.17 333.35 528.79 329.93 530.45 326.98C536.74 314.89 544.5 303.48 553.72 292.74C555.02 291.23 558 293.35 556.24 294.9C551.63 300.27 547.35 305.93 543.42 311.88C540.06 317.16 536.85 322.42 533.8 327.67C531.78 332.06 527.93 337.06 529.72 342.1C531.01 346.71 535.51 350.13 539.86 351.68C543.75 353.27 548.46 353.38 553.46 351.11C554.15 347.76 555.8 344.81 556.99 341.9C558.91 338.3 561.02 335.01 563.29 332.01C567.49 325.42 572.7 319.69 578.92 314.82C580.68 313.27 582.81 316.41 581.04 317.95C575.11 322.48 569.89 328.05 565.37 334.67C563.38 337.33 561.72 340.28 560.4 343.52C559.17 345.97 557.48 348.45 557.23 351.29C555.82 357.51 559.49 362.41 563.95 365.37C573.84 371.67 586.76 368.34 592.64 358.95L589.8 352.58C588.02 353.97 586.26 355.52 584.51 357.22C583.61 357.76 582.64 357.36 582.14 356.93C581.6 356.03 582 355.06 582.43 354.56C586.82 350.46 589.16 348.24 589.45 347.91C590.39 347.84 591.36 348.24 591.9 349.14L595.28 356.41C596.25 356.81 597.26 357.67 596.9 359.11C593.15 365.51 586.92 370.22 579.51 371.73V371.7Z" fill="#EE796A"/>
</g>
<defs>
<clipPath id="clip0_247_112">
<rect width="729.08" height="528.35" fill="white"/>
</clipPath>
</defs>
</svg>
