<svg width="172" height="155" viewBox="0 0 172 155" fill="none" xmlns="http://www.w3.org/2000/svg">
<path d="M154.3 50.0413C156.4 73.8413 138.7 93.2413 114.9 93.2413C91.0001 93.2413 70.0001 73.8413 67.9001 50.0413C65.8001 26.1413 83.4 6.74133 107.3 6.74133C131.2 6.74133 152.2 26.1413 154.3 50.0413Z" fill="#FFBB4D"/>
<path d="M97.4 144.241H27.4999C24.0999 144.241 21.0999 141.441 20.7999 138.041L9.59995 10.0413C9.29995 6.64134 13.5999 0.741333 16.9999 0.741333L85.2001 3.84134C88.6001 3.84134 91.5999 6.64134 91.7999 10.0413L106 135.641C106.3 139.041 100.8 144.241 97.4 144.241Z" fill="#36174D"/>
<path d="M100.4 140.941H30.4C27 140.941 24.0001 138.141 23.7001 134.841L12.4999 6.74136C12.1999 3.34136 14.7 0.641357 18.1 0.641357H88.1C91.5 0.641357 94.4999 3.34136 94.7999 6.74136L106 134.841C106.3 138.141 103.8 140.941 100.4 140.941Z" fill="#36174D"/>
<path d="M96.2998 136.641H34.7998C31.3998 136.641 28.3999 133.941 28.0999 130.541L26.0999 106.741L25.7 102.541L17.7 10.7414C17.3 7.24138 19.8998 4.54138 23.2998 4.54138H84.7C88.1 4.54138 91.0999 7.24138 91.3999 10.6414C91.3999 10.708 93.2333 31.5747 96.8999 73.2414L99.3999 102.541L101.9 130.541C102.2 133.941 99.6998 136.641 96.2998 136.641Z" fill="white"/>
<path d="M96.2999 136.641H34.7999C31.3999 136.641 28.4 133.941 28.1 130.541L26.1 106.741C27.6 105.241 29.5 103.841 31.6 103.441C36.5 102.441 40.1 106.641 44.6 107.341C49.4 108.141 53.6999 104.541 56.2999 100.741C59.1999 96.4413 60.5999 91.2413 63.4999 86.9413C69.3999 78.3413 79.8999 74.9413 89.7999 73.8413C92.1333 73.5747 94.5 73.3747 96.9 73.2413L99.4 102.541L101.9 130.541C102.2 133.941 99.6999 136.641 96.2999 136.641Z" fill="#DADEF1"/>
<path d="M44.4001 54.9414C44.9001 59.9414 41.2001 63.9414 36.2001 63.9414C31.2001 63.9414 26.8 59.9414 26.3 54.9414C25.9 49.9414 29.6 45.8414 34.6 45.8414C39.6 45.8414 44.0001 49.9414 44.4001 54.9414Z" fill="#FFBB4D"/>
<path d="M39.6 55.4414L34.6 58.8414C34.1 59.1414 33.2999 58.8414 33.2999 58.1414L32.7001 51.3414C32.6001 50.6414 33.3999 50.1414 33.9999 50.5414L39.6 53.9414C40.1 54.2414 40.1 55.0414 39.6 55.4414Z" fill="white"/>
<path d="M91.3999 10.7414H17.7C17.3 7.24138 19.8998 4.54138 23.2998 4.54138H84.7C88.1 4.54138 91.0999 7.24138 91.3999 10.6414V10.7414Z" fill="#19C5FF"/>
<path d="M67.2999 8.1414H44.4C41.8 8.1414 39.4999 6.04141 39.2999 3.44141H71.6C71.8 6.04141 69.8999 8.1414 67.2999 8.1414Z" fill="#36174D"/>
<path d="M129.3 44.0414C129.7 45.2414 130.2 46.4414 130.8 47.3414C132.1 49.3414 133.1 49.7414 133.5 49.8414C132.6 49.8414 129 49.6414 126.2 47.6414C124.8 46.7414 123.7 45.6414 122.9 44.6414H66.7999C61.8999 44.6414 57.9999 40.7414 57.9999 35.8414C57.9999 31.0414 61.8999 27.0414 66.7999 27.0414H126.1C130.9 27.0414 134.8 31.0414 134.8 35.8414C134.8 39.6414 132.5 42.7414 129.3 44.0414Z" fill="#19C5FF"/>
<path d="M94.4998 62.2414C91.6998 59.3081 92.0331 55.8414 95.4998 51.8414C100.7 45.8414 109.1 44.8414 120.3 50.7414C128.3 54.9414 132 54.0414 133.5 53.1414C135 52.2414 141.5 47.4414 148.9 49.1414C156.1 50.7414 158.3 53.2414 161.3 51.4414C164.833 49.2414 168.1 48.7747 171.1 50.0414V87.8414C167.7 92.2414 163.567 94.4414 158.7 94.4414C153.5 94.4414 147.2 89.8414 142.1 89.8414C137.8 89.8414 135 95.5414 127.1 93.0414C123 91.7414 110.2 87.9414 108.4 83.2414C106.6 78.4414 101.9 71.8414 103.4 71.6414C103.6 71.5747 100.633 68.4414 94.4998 62.2414Z" fill="#36174D"/>
<path d="M105.1 73.2413C110.899 73.2413 115.6 68.5403 115.6 62.7413C115.6 56.9423 110.899 52.2413 105.1 52.2413C99.301 52.2413 94.6 56.9423 94.6 62.7413C94.6 68.5403 99.301 73.2413 105.1 73.2413Z" fill="#36174D"/>
<path d="M108.5 79.8414C106.033 79.5747 103.6 79.1747 101.2 78.6414C101.1 78.5414 100.9 78.5414 100.8 78.3414C100.2 76.208 99.5999 74.108 98.9999 72.0413C96.7999 72.0413 94.8001 70.7414 93.7001 68.8414C93.1001 67.9414 92.6999 66.9414 92.4999 65.8414C92.3666 65.308 92.2668 64.7414 92.2001 64.1414C92.2001 63.6414 92.1001 63.0413 92.2001 62.5413C92.2668 62.008 92.5667 61.6413 93.1 61.4413C93.5 61.2413 93.8 61.1414 94.1 60.8414C94.6 60.1414 94.8 59.2413 95.1 58.4413C96.2 54.9413 99.6001 52.4413 103.2 52.5413C102.867 53.008 102.6 53.508 102.4 54.0413C101.5 56.2413 101.4 58.8414 102.3 61.1414C102.7 62.3414 103.5 63.4413 104.4 64.4413C104.7 65.7413 104.9 66.6414 105.2 67.6414C106.2 71.5747 107.467 75.408 109 79.1414C109.2 79.5414 108.9 79.8414 108.5 79.8414Z" fill="#FFA895"/>
<path d="M105.8 68.0414C107.733 68.0414 109.3 66.4744 109.3 64.5414C109.3 62.6084 107.733 61.0414 105.8 61.0414C103.867 61.0414 102.3 62.6084 102.3 64.5414C102.3 66.4744 103.867 68.0414 105.8 68.0414Z" fill="#FFA895"/>
<path d="M70.5999 86.4414C72.9999 92.1414 76.4999 100.741 79.2999 107.341C77.0999 108.341 74.5 109.541 72.2 110.641C70.9 111.241 69.4 112.041 67.9 112.741C62.1 115.641 54.9999 113.541 51.7999 107.841L42.7 91.8414L39.2999 85.7414C38.6332 84.208 38 82.6747 37.4 81.1414C36.9 79.8414 36.3999 78.4414 35.0999 77.7414C34.3666 77.3414 33.5999 76.9747 32.7999 76.6414C32.1999 76.3414 31.4998 76.0414 30.9998 75.6414C29.8998 74.8414 29.5 73.5414 30.4 72.5414C31.4 71.4414 32.9999 71.5414 34.2999 71.8414C35.2332 72.0414 36.1 72.3414 36.9 72.7414C36.5 72.408 36.0666 72.0747 35.5999 71.7414C34.6999 71.1414 33.7 70.8414 32.7 70.5414C31.8 70.2414 30.8 69.7414 30.7 68.5414C30.6 67.5414 31.2999 66.7414 32.0999 66.2414C31.5999 65.7414 31.3 65.1414 31.4 64.4414C31.6 63.5414 32.1998 62.8414 32.9998 62.5414C33.8998 62.1414 34.8999 62.1414 35.7999 62.2414C36.7999 62.3747 37.7333 62.608 38.5999 62.9414C39.5333 63.2747 40.4332 63.708 41.2999 64.2414C41.0999 63.0414 40.3999 61.7414 39.2999 60.8414C38.9666 60.508 38.6 60.2414 38.2 60.0414C37.6 59.8414 36.9998 59.7414 36.4998 59.3414C35.6998 58.7414 35.4999 57.6414 35.7999 56.7414C36.1999 55.8414 37.0998 55.2414 37.9998 55.1414C38.9998 54.9414 40.1 55.2414 40.9 55.7414C42.8 56.8414 44.2998 58.6414 45.4998 60.4414C48.0998 64.3414 49.6 68.7414 51.2 73.1414C51.4667 73.7414 51.7332 74.3747 51.9998 75.0414L61.5999 91.7414C64.1333 90.3414 67.1333 88.5747 70.5999 86.4414Z" fill="#FFA895"/>
<path d="M47.3999 63.7413C46.2999 61.8413 44.9999 59.9413 43.3999 58.4413C42.1999 57.1413 40.6998 56.0413 38.9998 55.8413C38.0998 55.7413 37.1999 55.8413 36.5999 56.5413C35.9999 57.2413 36.1 58.0413 36.7 58.6413C37.4 59.2413 38.4 59.4413 39.2 60.0413C39.9 60.4413 40.3999 61.0413 40.8999 61.6413C41.3999 62.3413 41.7999 63.1413 42.0999 63.9413C42.4332 64.6747 42.7331 65.408 42.9998 66.1413C42.6998 66.0413 42.5 65.6413 42.2 65.3413C41.9333 65.0747 41.6666 64.808 41.3999 64.5413C41.1333 63.8747 40.7999 63.2413 40.3999 62.6413C40.0666 62.108 39.6667 61.6413 39.2 61.2413C37.8 60.0413 35 59.6413 35.2 57.3413C35.4 55.2413 37.7999 54.5413 39.5999 54.9413C41.4999 55.3413 43.0999 56.6413 44.3999 58.0413C45.8999 59.6413 47.1998 61.4413 48.2998 63.3413C48.5998 63.9413 47.6999 64.2413 47.3999 63.7413Z" fill="white"/>
<path d="M96.4 116.941C96.5334 117.141 96.6666 117.408 96.7999 117.741C96.6666 117.475 96.5334 117.208 96.4 116.941Z" fill="#FFA895"/>
<path d="M149.2 120.841C141.9 128.041 130 139.841 129.6 139.341C129.133 138.941 124.6 135.608 116 129.341C126.867 120.675 132.7 115.641 133.5 114.241C133.6 114.141 133 113.341 131.8 112.141C126.4 106.541 109.9 91.6414 109.8 91.4414C109.733 91.2414 114.033 87.4414 122.7 80.0414C128.7 81.908 133.9 85.9414 138.3 92.1414C140.2 94.8414 142.3 97.9414 144.5 100.841C146.5 103.741 148.5 106.541 150.2 108.841C152.8 112.541 152.4 117.641 149.2 120.841Z" fill="#FFA895"/>
<path d="M144.5 100.841C140.5 104.241 135.5 108.841 131.8 112.141C126.4 106.541 109.9 91.6414 109.8 91.4414C109.733 91.2414 114.033 87.4414 122.7 80.0414C128.7 81.908 133.9 85.9414 138.3 92.1414C140.2 94.8414 142.3 97.9414 144.5 100.841Z" fill="#19C5FF"/>
<path d="M100.3 132.741C100.5 129.841 100.3 126.841 99.2999 124.341C99.2333 124.141 99.1666 123.908 99.1 123.641C98.3666 121.775 97.7666 120.208 97.2999 118.941H129.7C130.1 119.608 130.567 120.308 131.1 121.041C131.767 121.975 132.4 122.841 133 123.641C138.7 131.441 140.3 133.341 141.9 136.841C142.1 137.308 142.3 137.741 142.5 138.141C142.9 138.941 143.1 139.441 143.3 139.941C143.6 140.541 143.7 140.941 143.9 141.241C144.4 142.341 144.7 143.041 144.9 143.541C145.2 144.141 147.8 154.241 147.8 154.241L93.4 154.841L97.9 144.141C98.5 142.341 98.5 142.241 98.6 142.041C98.6666 141.841 98.7333 141.641 98.7999 141.441C98.8999 140.941 98.8999 140.741 98.9999 140.541C99.4999 138.641 99.9 136.641 100.1 134.441C100.167 134.175 100.2 133.908 100.2 133.641C100.2 133.441 100.233 133.241 100.3 133.041C100.3 132.908 100.3 132.808 100.3 132.741Z" fill="#36174D"/>
<path d="M128.6 117.441C128.933 117.908 129.3 118.408 129.7 118.941H97.2999C97.0999 118.541 96.9333 118.141 96.7999 117.741C96.6666 117.408 96.5334 117.141 96.4 116.941C96.1 116.141 95.8999 115.741 95.7999 115.441C95.3999 114.641 95.3001 114.341 95.2001 114.241C95.2001 114.141 91.7001 111.241 88.7001 109.341C86.6334 108.075 85.3001 106.541 84.7001 104.741C83.1001 105.475 81.2999 106.341 79.2999 107.341C76.4999 100.741 73 92.1413 70.6 86.4413C72.4 85.2413 74.4 84.0414 76.4 82.6414C84.8 77.1414 88.8 75.0414 98.9 75.8414C109 76.6414 109.5 76.1414 114.7 77.3414C120 78.6414 126.8 81.0413 129.2 84.4413C131.6 87.9413 129.8 94.4413 128.8 97.9413C128.067 100.341 126.967 103.775 125.5 108.241C125.367 108.441 125.333 108.808 125.4 109.341C125.4 109.641 125.4 109.741 125.4 109.941C125.7 111.341 126.1 112.541 126.8 114.141C127.5 115.341 127.8 115.941 128.2 116.541C128.333 116.808 128.467 117.108 128.6 117.441Z" fill="#19C5FF"/>
<path d="M133 123.641H99.1C98.3666 121.775 97.7666 120.208 97.2999 118.941H129.7C130.1 119.608 130.567 120.308 131.1 121.041C131.767 121.975 132.4 122.841 133 123.641Z" fill="#19C5FF"/>
<path d="M97.4999 59.3413C96.4999 59.0413 96.3999 59.2413 96.2999 59.4413C97.2999 59.6413 97.3999 59.5413 97.4999 59.3413Z" fill="#36174D"/>
<path d="M99.7001 58.3414C99.5001 58.4414 99.0999 58.3414 97.2999 56.8414C96.9999 56.7414 96.7999 56.5414 96.7999 56.2414C96.7999 55.9414 97.1 55.8414 97.4 55.8414C98.5 55.8414 99.6 56.6414 99.9 57.7414C100 58.0414 99.9001 58.2414 99.7001 58.3414Z" fill="#36174D"/>
<path d="M94.4999 64.1413C93.8333 64.6747 93.1334 65.1747 92.4001 65.6413C92.2001 65.7413 91.9001 65.7413 91.7001 65.5413C91.6001 65.3413 91.6 64.9413 91.8 64.8413C92.5333 64.3747 93.2334 63.8747 93.9001 63.3413C94.1001 63.1413 94.4 63.2413 94.6 63.4413C94.8 63.6413 94.6999 63.9413 94.4999 64.1413Z" fill="#F76D6D"/>
<path d="M106.8 63.7413C105.867 64.1413 104.933 64.5413 104 64.9413C103.7 65.0413 103.5 64.9413 103.4 64.6413C103.3 64.4413 103.4 64.1413 103.6 64.0413C104.533 63.708 105.5 63.3413 106.5 62.9413C106.7 62.8413 107 62.9413 107.1 63.1413C107.2 63.3413 107 63.6413 106.8 63.7413Z" fill="#F76D6D"/>
<path d="M44.4 68.6414C44 67.8414 43.5332 67.0748 42.9999 66.3414C42.7332 66.0081 42.4668 65.6748 42.2001 65.3414C41.9334 65.0748 41.6667 64.8081 41.4 64.5414C39.9 63.2414 38 62.4414 35.9 62.3414C34.8 62.3414 33.4 62.5414 32.4 63.2414C31.7 63.7414 31.7 64.9414 32.4 65.5414C32.8 65.9414 32.3 66.7414 31.8 66.3414C30.8 65.4414 30.5999 63.8414 31.4999 62.8414C31.8999 62.3414 32.6 62.0414 33.3 61.8414C33.9666 61.6414 34.6999 61.5081 35.4999 61.4414C36.8999 61.3414 38.4001 61.6414 39.7001 62.2414C39.9668 62.3748 40.2 62.5081 40.4 62.6414C41 62.9748 41.5667 63.4081 42.1 63.9414C43.5 65.1414 44.5 66.6414 45.3 68.2414C45.6 68.8414 44.7 69.2414 44.4 68.6414Z" fill="#F76D6D"/>
<path d="M41.6 71.6414C40.6 69.9414 39.3 68.5414 37.6 67.6414C36.8 67.1414 35.9 66.8414 34.9 66.5414C34 66.3414 33 66.1414 31.9 66.7414C31.2 67.1414 30.8 67.8414 31.1 68.5414C31.5 69.5414 32.5999 69.5414 33.4999 69.8414C34.3999 70.1414 35.4001 70.6414 36.2001 71.1414C37.0001 71.6414 37.7 72.2414 38.1 73.1414C38.3 73.6414 37.4001 74.0414 37.2001 73.4414C36.8001 72.5414 35.8999 71.9414 34.9999 71.5414C34.4665 71.2747 33.9333 71.0414 33.4 70.8414C32.9 70.6414 32.3001 70.5414 31.7001 70.3414C30.7001 70.0414 30 69.0414 30.1 67.9414C30.1 66.9414 30.8 66.0414 31.9 65.7414C32.8 65.3414 33.8001 65.3414 34.7001 65.5414C35.7667 65.7414 36.7667 66.1081 37.7001 66.6414C39.7001 67.6414 41.3 69.1414 42.4 71.0414C42.7 71.5414 41.9 72.1414 41.6 71.6414Z" fill="#F76D6D"/>
<path d="M94.3999 100.241C91.6666 101.575 88.9665 102.908 86.2998 104.241C81.4998 106.575 76.6999 108.841 71.8999 111.041C67.6999 112.941 62.5998 115.841 57.9998 113.841C57.3998 113.541 57.6998 112.641 58.2998 112.941C60.7998 113.941 63.4998 113.441 65.9998 112.541C68.2998 111.741 70.5999 110.641 72.8999 109.541C75.2332 108.475 77.5666 107.375 79.8999 106.241C84.6332 103.975 89.3331 101.675 93.9998 99.3414C94.4998 99.0414 94.8999 99.9414 94.3999 100.241Z" fill="white"/>
<path d="M148.2 153.841H147.2C146.8 152.841 143.8 142.041 143.4 141.041C142.667 139.108 141.8 137.208 140.8 135.341C137.6 129.441 133.4 124.341 129.5 118.941C128.966 118.275 128.433 117.575 127.9 116.841C126.9 115.341 125.9 113.741 125.4 111.941C124.9 110.041 125.1 108.241 125.7 106.441C126.5 104.541 127.3 102.741 127.9 100.741C128.567 98.808 129.133 96.8414 129.6 94.8414C129.7 94.2414 130.7 94.3414 130.6 95.0414C130.067 97.2414 129.433 99.408 128.7 101.541C128.3 102.608 127.9 103.675 127.5 104.741C127.1 105.741 126.6 106.741 126.3 107.741C125.2 111.541 127.8 114.941 129.9 117.941C132.1 120.841 134.4 123.841 136.5 126.841C138.6 129.841 140.6 132.941 142.3 136.241C143.167 137.841 143.9 139.541 144.5 141.341C144.9 142.241 147.9 152.941 148.2 153.841Z" fill="white"/>
<path d="M40.4 75.9413C39.0667 74.8747 37.6333 74.008 36.1 73.3413C34.9 72.8413 33.0999 72.0413 31.7999 72.7413C31.2999 73.0413 30.8 73.5413 30.9 74.1413C30.9 74.7413 31.4 75.1413 31.9 75.4413C32.6 75.8413 33.4 75.9413 34.1 76.3413C34.6333 76.5413 35.1667 76.8413 35.7001 77.2413C36.6001 78.1413 37.3999 79.1413 37.7999 80.3413C37.8999 80.9413 37 81.3413 36.9 80.7413C36.4 79.2413 35.2999 77.9413 33.7999 77.2413C32.4999 76.6413 30.7 76.4413 30.1 74.8413C29.5 73.4413 30.6 72.0413 31.9 71.6413C33.5 71.2413 35.3001 71.9413 36.7001 72.5413C38.2334 73.2747 39.6334 74.1413 40.9 75.1413C41.4 75.5413 40.8 76.3413 40.4 75.9413Z" fill="#F76D6D"/>
<path d="M34.2999 24.3414C34.2999 19.4414 38.1999 15.5414 42.9999 15.5414H102.3C107.2 15.5414 111.1 19.4414 111.1 24.3414C111.1 29.1414 107.2 33.1414 102.3 33.1414H46.2001C45.4001 34.1414 44.3 35.1414 42.9 36.1414C40.1 38.1414 36.5 38.2414 35.6 38.2414C36 38.2414 36.9999 37.8414 38.2999 35.7414C38.8999 34.8414 39.3999 33.7414 39.7999 32.5414C36.5999 31.2414 34.2999 28.0414 34.2999 24.3414Z" fill="#F66957"/>
<path d="M49.7999 51.7414L50.6 60.2414C50.7 60.6414 50.2999 61.0414 49.7999 61.0414C49.1999 61.0414 48.8001 60.6414 48.7001 60.2414L47.7999 51.7414C47.7999 51.3414 48.2001 50.9414 48.7001 50.9414C49.2001 50.9414 49.6999 51.3414 49.7999 51.7414Z" fill="#F5F5FA"/>
<path d="M52.9999 54.7414L53.6 60.2414C53.6 60.6414 53.2001 61.0414 52.7001 61.0414C52.1001 61.0414 51.7 60.6414 51.6 60.2414L51.1 54.7414C51 54.2414 51.4001 53.9414 51.9001 53.9414C52.5001 53.9414 52.8999 54.2414 52.9999 54.7414Z" fill="#F5F5FA"/>
<path d="M56.1 56.6413L56.4999 60.2413C56.4999 60.6413 56.1 61.0413 55.6 61.0413C55.1 61.0413 54.5999 60.6413 54.4999 60.2413L54.2001 56.6413C54.1001 56.1413 54.4999 55.7413 54.9999 55.7413C55.5999 55.7413 56 56.1413 56.1 56.6413Z" fill="#F5F5FA"/>
<path d="M59.4999 55.2414L60.1 60.2414C60.1 60.6414 59.7001 61.0414 59.2001 61.0414C58.7001 61.0414 58.2 60.6414 58.1 60.2414L57.6 55.2414C57.6 54.7414 57.9999 54.4414 58.4999 54.4414C58.9999 54.4414 59.4999 54.7414 59.4999 55.2414Z" fill="#F5F5FA"/>
<path d="M62.4 54.7414L62.9998 60.2414C62.9998 60.6414 62.5999 61.0414 62.0999 61.0414C61.5999 61.0414 61.0999 60.6414 61.0999 60.2414L60.4998 54.7414C60.3998 54.2414 60.8 53.9414 61.4 53.9414C61.9 53.9414 62.4 54.2414 62.4 54.7414Z" fill="#F5F5FA"/>
<path d="M65.4999 56.6413L65.9 60.2413C66 60.6413 65.5999 61.0413 64.9999 61.0413C64.4999 61.0413 63.9999 60.6413 63.9999 60.2413L63.6 56.6413C63.6 56.1413 63.9999 55.7413 64.4999 55.7413C64.9999 55.7413 65.4999 56.1413 65.4999 56.6413Z" fill="#F5F5FA"/>
<path d="M69.1 57.4413L69.4 60.2413C69.5 60.6413 69.0999 61.0414 68.4999 61.0414C67.9999 61.0414 67.4999 60.6413 67.4999 60.2413L67.2001 57.4413C67.2001 57.0413 67.5 56.6414 68.1 56.6414C68.6 56.6414 69.1 57.0413 69.1 57.4413Z" fill="#F5F5FA"/>
<path d="M71.7999 54.7414L72.2999 60.2414C72.3999 60.6414 72 61.0414 71.4 61.0414C70.9 61.0414 70.4 60.6414 70.4 60.2414L69.7999 54.7414C69.7999 54.2414 70.2001 53.9414 70.7001 53.9414C71.2001 53.9414 71.6999 54.2414 71.7999 54.7414Z" fill="#F5F5FA"/>
<path d="M74.4 51.7414L75.2001 60.2414C75.3001 60.6414 74.9 61.0414 74.4 61.0414C73.8 61.0414 73.3999 60.6414 73.2999 60.2414L72.4 51.7414C72.4 51.3414 72.7999 50.9414 73.2999 50.9414C73.8999 50.9414 74.3 51.3414 74.4 51.7414Z" fill="#F5F5FA"/>
<path d="M78.2 54.1414L78.7999 60.2414C78.8999 60.6414 78.4998 61.0414 77.9998 61.0414C77.3998 61.0414 77 60.6414 76.9 60.2414L76.2999 54.1414C76.1999 53.6414 76.6 53.3414 77.2 53.3414C77.7 53.3414 78.2 53.6414 78.2 54.1414Z" fill="#F5F5FA"/>
<path d="M81.4 56.9413L81.7999 60.2413C81.7999 60.6413 81.4 61.0414 80.9 61.0414C80.4 61.0414 79.8999 60.6413 79.7999 60.2413L79.4999 56.9413C79.4999 56.4413 79.8 56.1414 80.4 56.1414C80.9 56.1414 81.4 56.4413 81.4 56.9413Z" fill="#F5F5FA"/>
<path d="M84.2999 56.9413L84.7001 60.2413C84.7001 60.6413 84.2999 61.0414 83.7999 61.0414C83.2999 61.0414 82.7999 60.6413 82.7999 60.2413L82.4 56.9413C82.4 56.4413 82.7999 56.1414 83.2999 56.1414C83.7999 56.1414 84.2999 56.4413 84.2999 56.9413Z" fill="#F5F5FA"/>
<path d="M38.0999 92.0414L41.2 126.941C41.3 127.741 40.6999 128.441 39.8999 128.441H4.99979C4.19979 128.441 3.49994 127.741 3.39994 126.941L0.399941 92.0414C0.299941 91.2414 0.89999 90.6414 1.69999 90.6414H36.5999C37.3999 90.6414 38.0999 91.2414 38.0999 92.0414Z" fill="#FFBB4D"/>
<path d="M39.4 106.041L41.2001 126.941C41.3001 127.741 40.7 128.441 39.9 128.441H4.99988C4.19988 128.441 3.50002 127.741 3.40002 126.941L2.70007 119.341C2.70007 118.941 2.79998 118.541 3.09998 118.241C4.39998 116.941 6.09988 115.941 7.99988 115.741C9.89988 115.441 12 116.041 13.9 116.741C15.7 117.441 17.7001 118.341 19.7001 118.341C21.6001 118.241 23.0999 117.341 24.2999 116.041C25.5999 114.641 26.5001 113.041 27.7001 111.541C28.9001 109.941 30.2999 108.541 31.9999 107.441C33.5999 106.241 35.3999 105.341 37.2999 104.641C38.2999 104.341 39.3 105.041 39.4 106.041Z" fill="#19C5FF"/>
<path d="M21.1001 104.241C21.4001 107.741 18.8 110.641 15.3 110.641C11.7 110.641 8.60003 107.741 8.30003 104.241C8.00003 100.741 10.6002 97.8414 14.2002 97.8414C17.7002 97.8414 20.8001 100.741 21.1001 104.241Z" fill="white"/>
<path d="M170.6 47.1414C170 46.9414 169.4 46.8414 168.8 46.8414C166.3 47.0414 164.4 49.0414 162.2 50.1414C161.067 50.7414 159.867 51.0414 158.6 51.0414C157.3 50.9414 156.1 50.6414 154.8 50.3414C153.6 49.9414 152.4 49.6414 151.1 49.5414C150 49.4414 148.9 49.5414 147.8 49.7414C145.6 50.1414 143.5 51.0414 141.5 51.9414C139.4 52.7414 137.2 53.6414 135 54.0414C132.5 54.4414 130.1 54.0414 127.8 53.2414C125.3 52.4414 123 51.2414 120.6 50.4414C118.2 49.6414 115.8 49.0414 113.3 48.7414C108.5 48.1414 103.5 48.6414 99.0999 51.0414C98.5999 51.3414 98.1998 50.4414 98.7998 50.1414C99.3332 49.8748 99.8666 49.6081 100.4 49.3414C105 47.3414 110 47.1414 114.9 47.9414C117.3 48.3414 119.8 49.0414 122.1 49.9414C124.6 50.8414 127 52.1414 129.5 52.7414C131.9 53.4414 134.3 53.3414 136.6 52.6414C138.8 52.0414 140.9 51.0414 143.1 50.2414C145.2 49.4414 147.4 48.6414 149.6 48.5414C150.8 48.4748 151.967 48.5748 153.1 48.8414C154.4 49.1414 155.7 49.5414 157 49.8414C158.2 50.0414 159.5 50.1414 160.7 49.7414C161.9 49.3414 163 48.5414 164 47.8414C166 46.5414 168.5 45.2414 170.9 46.2414C171.5 46.5414 171.1 47.4414 170.6 47.1414Z" fill="#36174D"/>
</svg>
